<?xml version="1.0" encoding="UTF-8" standalone="no"?>
<svg
   xmlns:dc="http://purl.org/dc/elements/1.1/"
   xmlns:cc="http://creativecommons.org/ns#"
   xmlns:rdf="http://www.w3.org/1999/02/22-rdf-syntax-ns#"
   xmlns:svg="http://www.w3.org/2000/svg"
   xmlns="http://www.w3.org/2000/svg"
   xmlns:sodipodi="http://sodipodi.sourceforge.net/DTD/sodipodi-0.dtd"
   xmlns:inkscape="http://www.inkscape.org/namespaces/inkscape"
   width="931.40002"
   height="930.63538"
   viewBox="0 0 931.40002 930.63538"
   version="1.1"
   id="svg12"
   sodipodi:docname="berty.svg"
   inkscape:version="0.92.4 (5da689c313, 2019-01-14)">
  <metadata
     id="metadata18">
    <rdf:RDF>
      <cc:Work
         rdf:about="">
        <dc:format>image/svg+xml</dc:format>
        <dc:type
           rdf:resource="http://purl.org/dc/dcmitype/StillImage" />
        <dc:title>berty_picto_mono_white</dc:title>
      </cc:Work>
    </rdf:RDF>
  </metadata>
  <defs
     id="defs16" />
  <sodipodi:namedview
     pagecolor="#ffffff"
     bordercolor="#666666"
     borderopacity="1"
     objecttolerance="10"
     gridtolerance="10"
     guidetolerance="10"
     inkscape:pageopacity="0"
     inkscape:pageshadow="2"
     inkscape:window-width="640"
     inkscape:window-height="480"
     id="namedview14"
     showgrid="false"
     fit-margin-top="30"
     fit-margin-left="30"
     fit-margin-right="30"
     fit-margin-bottom="30"
     inkscape:zoom="0.27095293"
     inkscape:cx="465.4"
     inkscape:cy="465.33536"
     inkscape:window-x="0"
     inkscape:window-y="193"
     inkscape:window-maximized="0"
     inkscape:current-layer="svg12" />
  <!-- Generator: Sketch 64 (93537) - https://sketch.com -->
  <title
     id="title2">berty_picto_mono_white</title>
  <desc
     id="desc4">Created with Sketch.</desc>
  <g
     id="Page-1"
     style="fill:none;fill-rule:evenodd;stroke:none;stroke-width:1"
     transform="translate(29.4,29.8)">
    <g
       id="berty_picto_mono_white"
       style="fill:#000000;fill-rule:nonzero">
      <path
         d="m 618.9,526.7 c 0.1,0 0.1,0 0.2,0 66.4,-0.1 122,-46 137.1,-107.8 L 618.9,389.2 Z"
         id="Path"
         inkscape:connector-curvature="0" />
      <path
         d="m 872,387.2 c 0,-73.7 -31.8,-140 -82.4,-186 -40.9,-37.2 -94.2,-61 -152.9,-64.6 -5.6,-0.3 -11.2,-0.5 -16.8,-0.5 -0.3,0 -0.7,0 -1,0 0.3,0 0.7,0 1,0 -54.3,-0.5 -108,10.3 -157.7,31.1 -16.8,7 -33.2,15.2 -48.9,24.5 L 351.6,54.9 326.9,0.2 C 265.6,27.9 220.6,76.9 196.7,134.5 L 291.9,218.7 186.7,163.1 44.9,84.5 C -42,240.8 15.3,438.7 171.5,525.6 L 0.6,851.6 c 81.9,43 183.2,11.5 226.2,-70.5 2.4,-4.5 4.5,-9.2 6.4,-13.8 -5.2,-2.7 -10.3,-5.4 -15.4,-8.2 -9.2,-5.1 -18.3,-10.3 -27.3,-15.6 -17.9,-10.7 -35.5,-22 -52.6,-33.6 19.3,7.5 38.9,14.4 58.5,20.8 9.8,3.1 19.6,6.1 29.5,8.9 7.5,2.1 15.1,4.1 22.5,5.8 148.3,5.8 293.8,-72.1 367.3,-212.4 l 2.9,-6.2 c -0.9,0 -1.8,0 -2.7,0 -98.2,-1.7 -177.3,-81.8 -177.3,-180.4 0,-2.8 0.1,-5.5 0.2,-8.3 4.3,-95.6 83.5,-171.8 180.1,-172.2 0,60.5 0,193.7 0,216.1 l 248.3,53.7 c 3.1,-15.7 4.8,-31.9 4.8,-48.5 z"
         id="path7"
         inkscape:connector-curvature="0" />
      <circle
         id="Oval"
         cx="561"
         cy="335.10001"
         r="32.299999" />
    </g>
  </g>
</svg>
