<?xml version="1.0" encoding="UTF-8" standalone="no"?>
<!-- Generator: Adobe Illustrator 23.0.3, SVG Export Plug-In . SVG Version: 6.00 Build 0)  -->

<svg
   xmlns:dc="http://purl.org/dc/elements/1.1/"
   xmlns:cc="http://creativecommons.org/ns#"
   xmlns:rdf="http://www.w3.org/1999/02/22-rdf-syntax-ns#"
   xmlns:svg="http://www.w3.org/2000/svg"
   xmlns="http://www.w3.org/2000/svg"
   xmlns:sodipodi="http://sodipodi.sourceforge.net/DTD/sodipodi-0.dtd"
   xmlns:inkscape="http://www.inkscape.org/namespaces/inkscape"
   version="1.1"
   id="Calque_1"
   x="0px"
   y="0px"
   viewBox="0 0 581.55322 105.49034"
   xml:space="preserve"
   sodipodi:docname="resonantes.svg"
   width="581.55322"
   height="105.49034"
   inkscape:version="0.92.4 (5da689c313, 2019-01-14)"><metadata
   id="metadata23"><rdf:RDF><cc:Work
       rdf:about=""><dc:format>image/svg+xml</dc:format><dc:type
         rdf:resource="http://purl.org/dc/dcmitype/StillImage" /><dc:title>resonantes logo - noir</dc:title></cc:Work></rdf:RDF></metadata><defs
   id="defs21" /><sodipodi:namedview
   pagecolor="#ffffff"
   bordercolor="#666666"
   borderopacity="1"
   objecttolerance="10"
   gridtolerance="10"
   guidetolerance="10"
   inkscape:pageopacity="0"
   inkscape:pageshadow="2"
   inkscape:window-width="1720"
   inkscape:window-height="1403"
   id="namedview19"
   showgrid="false"
   fit-margin-top="20"
   fit-margin-left="20"
   fit-margin-bottom="20"
   fit-margin-right="20"
   inkscape:zoom="0.52659574"
   inkscape:cx="298.59596"
   inkscape:cy="43.085328"
   inkscape:window-x="1920"
   inkscape:window-y="0"
   inkscape:window-maximized="0"
   inkscape:current-layer="Calque_1" />
<style
   type="text/css"
   id="style2">
	.st0{fill:#1D1D1B;}
</style>
<title
   id="title4">resonantes logo - noir</title>
<path
   class="st0"
   d="m 510.9,77.959556 c 2,-6 3.9,-12.2 6,-18.1 0.3,-0.5 0.9,0.4 1.2,0.7 3.1,2.6 6.6,4.6 10.4,6 3,1 9.4,1.5 8.9,-2.9 -0.3,-2.8 -5.4,-2.9 -7.8,-3.6 -2.8,-0.7 -5.6,-1.7 -8.2,-3 -4.8,-2.8 -9.4,-7.9 -8.9,-15.7 0.4,-5.7 3.1,-10.9 7.4,-14.6 4.6,-3.9 10.3,-6.1 16.3,-6.3 10,-0.6 17,2.5 23,6.2 -1.6,5.4 -3.4,10.7 -4.9,16.1 -1.8,-0.9 -4,-2.4 -6.4,-3.5 -2.3,-1 -5.1,-2.1 -8.1,-1.8 -2,0.2 -4.1,1.7 -3.7,3.6 0.3,1.6 3.1,2.2 5.1,2.7 2.3,0.6 4.3,1.2 6,1.6 4.5,1.3 7.8,2.8 10.1,5.2 2.7,2.8 4.6,6.9 4.2,12.6 -0.7,11.4 -8.9,18.9 -18.9,21.4 -11.8,2.8 -23.2,-1.1 -31.7,-6.6 z"
   id="path6"
   inkscape:connector-curvature="0"
   style="fill:#1d1d1b" />
<path
   class="st0"
   d="m 329.2,60.159556 c -1.5,-7.3 -3.6,-14.8 -4.6,-22 -1.3,7.7 -3.4,14.5 -4.8,22 z m -12.2,15.9 c -0.8,2.5 -1.3,5.3 -1.9,7.9 h -24.9 c 7.3,-21 14.8,-41.7 22.2,-62.5 h 24.1 c 6.5,18.2 13,36.4 19.4,54.6 0.3,-17.9 0,-36.4 0.1,-54.6 h 22.4 c 0.6,0.6 1.1,1.3 1.5,2 3,5 6.2,10.3 9.3,15.5 1.8,3 3.6,5.8 5.2,8.9 1.5,3.3 2.9,6.7 4,10.1 0.1,0.2 0.1,0.5 0.1,0.7 0.4,0.5 0.1,-0.4 0.1,-0.4 v 0 c -0.5,-2.1 -1.2,-4.8 -1.5,-7.2 -0.3,-3.2 -0.4,-6.5 -0.4,-9.7 -0.1,-6.7 -0.2,-13.6 -0.3,-19.8 h 116.7 c -1.5,5.9 -3.2,11.5 -4.7,17.5 h -19.5 v 5.2 h 17.4 v 16.8 h -17.2 c -0.3,1.5 0,3.6 -0.1,5.3 h 24.2 c -1.7,5.9 -3.3,11.8 -5.1,17.6 H 466 v -52.7 c -1.2,3.2 -2.1,6.7 -3,10.1 h -10.3 c -0.3,13.9 0,28.4 -0.1,42.5 h -23.1 v -42.3 c -3.2,-0.3 -7,0 -10.4,-0.1 -0.3,13.9 0,28.4 -0.1,42.5 h -22.9 c -1,-1.3 -2,-2.7 -2.7,-4.2 -2.6,-4.2 -5.3,-8.4 -7.9,-12.6 -3.5,-5.6 -7,-11.5 -8.8,-18.7 0.2,2.5 0.9,5.2 1.1,8.1 0.8,8.7 0.3,18.6 0.7,27.5 h -44.9 c -0.4,-2.8 -1.1,-5.3 -1.6,-7.9 z"
   id="path8"
   inkscape:connector-curvature="0"
   style="fill:#1d1d1b" />
<path
   class="st0"
   d="m 303.1,21.759556 c -6,15 -12.2,29.8 -18.2,44.9 -0.3,1 -0.7,1.9 -1.4,2.7 -3.7,-16 -7.7,-31.7 -11.5,-47.6 10.3,0 24,-0.1 31.1,0 z"
   id="path10"
   inkscape:connector-curvature="0"
   style="fill:#1d1d1b" />
<path
   class="st0"
   d="m 279.1,83.459556 c -13.2,0.3 -26.9,0.1 -40.4,0.1 8,-20.9 16.6,-41.3 24.6,-62.1 0.1,0 0.1,0 0.1,0.1 5.4,20.5 10.6,41.2 15.7,61.9 z"
   id="path12"
   inkscape:connector-curvature="0"
   style="fill:#1d1d1b" />
<path
   class="st0"
   d="m 150.7,37.559556 c -2,0.2 -4.1,1.6 -3.7,3.5 0.3,1.6 3.1,2.2 5.1,2.7 2,0.5 4.3,1.1 6.2,1.6 6.5,1.8 11,4.5 13.1,10.4 0.2,-1 0.2,-2.1 0,-3.1 -0.1,-8.6 3.2,-16.8 9.3,-22.9 5.7,-5.7 13.4,-9.2 22.9,-9.7 11.9,-0.6 21.3,3.4 27.1,9 6.3,6 10.7,14 10,26.1 -0.6,7.9 -4,15.3 -9.7,20.8 -5.2,5.2 -12.6,8.3 -21.4,9.2 -9.8,1 -18.1,-1.5 -24.2,-5.8 -6.2,-4.2 -10.7,-10.5 -12.7,-17.8 -0.7,12.2 -8,20 -18.3,22.7 -12.4,3.3 -24.9,-1.3 -32.4,-6.4 2,-6 3.9,-12.2 6,-18.1 0.3,-0.5 0.9,0.4 1.2,0.7 1.3,1.1 2.7,2 4.1,2.9 1.9,1.3 4,2.3 6.2,3.1 3.1,1 9.3,1.5 9,-2.7 -0.2,-2.7 -4.9,-3 -7.7,-3.7 -2.8,-0.7 -5.6,-1.7 -8.2,-3 -4.7,-2.6 -8.6,-7 -9,-13.5 -0.4,-5.9 2.1,-10.5 4.9,-14.1 2.9,-3.6 6.9,-6.3 11.4,-7.7 10.6,-3.3 23.1,-0.4 30.4,4.8 -1.6,5.4 -3.4,10.7 -4.9,16.1 -2,-1 -4,-2.5 -6.4,-3.6 -2.4,-1.1 -5.3,-1.8 -8.3,-1.5 z m 67,16.9 c 0.6,-6.3 -2.4,-10.2 -5.9,-12 -2,-0.9 -4.2,-1.4 -6.4,-1.4 -3.8,0.1 -7.2,2.1 -9.3,5.2 -0.6,1 -1.1,2 -1.5,3.1 -1.9,6.4 1.7,13 8.1,14.9 1.9,0.6 3.8,0.6 5.7,0.3 5,-1 8.8,-5.1 9.3,-10.1 z"
   id="path14"
   inkscape:connector-curvature="0"
   style="fill:#1d1d1b" />
<path
   class="st0"
   d="m 43.1,65.359556 v 18.7 H 20 v -62.1 c 0,-0.2 0,-0.4 0.1,-0.4 h 26 c 8.8,0 17.4,-0.3 21.9,4.1 3.7,3.5 5.3,10.1 5.2,16 -0.2,8.4 -4.5,14.3 -11.2,16.6 4.8,7.4 9.8,14.6 14.9,21.8 v -58.5 h 47.2 c -1.4,5.9 -3.2,11.5 -4.7,17.5 h -19.2 c -0.3,1.5 0,3.5 -0.1,5.2 h 17.4 v 16.8 h -17.3 c -0.3,1.5 0,3.6 -0.1,5.3 h 24.2 c -1.7,5.9 -3.3,11.8 -5.1,17.6 H 56.9 c -1.5,0 -3.4,0.3 -4.1,0 -0.7,-0.3 -2.2,-3.6 -2.6,-4.5 -2.5,-4.9 -4.5,-9.4 -7.1,-14.1 z m 0,-15.6 c 4.1,0.2 7.2,-0.1 8.5,-2.6 1.4,-2.8 0.8,-6.8 -1.5,-8.2 -1.8,-1.1 -4,-0.7 -6.8,-0.8 -0.4,3.6 -0.1,7.8 -0.2,11.6 z"
   id="path16"
   inkscape:connector-curvature="0"
   style="fill:#1d1d1b" />
</svg>