<?xml version="1.0" encoding="UTF-8" standalone="no"?>
<!-- Generator: Adobe Illustrator 19.0.0, SVG Export Plug-In . SVG Version: 6.00 Build 0)  -->

<svg
   xmlns:dc="http://purl.org/dc/elements/1.1/"
   xmlns:cc="http://creativecommons.org/ns#"
   xmlns:rdf="http://www.w3.org/1999/02/22-rdf-syntax-ns#"
   xmlns:svg="http://www.w3.org/2000/svg"
   xmlns="http://www.w3.org/2000/svg"
   xmlns:sodipodi="http://sodipodi.sourceforge.net/DTD/sodipodi-0.dtd"
   xmlns:inkscape="http://www.inkscape.org/namespaces/inkscape"
   version="1.1"
   id="Capa_1"
   x="0px"
   y="0px"
   viewBox="0 0 511.997 511.997"
   style="enable-background:new 0 0 511.997 511.997;"
   xml:space="preserve"
   sodipodi:docname="binary.svg"
   inkscape:version="0.92.4 (5da689c313, 2019-01-14)"><metadata
   id="metadata175"><rdf:RDF><cc:Work
       rdf:about=""><dc:format>image/svg+xml</dc:format><dc:type
         rdf:resource="http://purl.org/dc/dcmitype/StillImage" /><dc:title></dc:title></cc:Work></rdf:RDF></metadata><defs
   id="defs173" /><sodipodi:namedview
   pagecolor="#ffffff"
   bordercolor="#666666"
   borderopacity="1"
   objecttolerance="10"
   gridtolerance="10"
   guidetolerance="10"
   inkscape:pageopacity="0"
   inkscape:pageshadow="2"
   inkscape:window-width="3440"
   inkscape:window-height="1403"
   id="namedview171"
   showgrid="false"
   inkscape:zoom="1.3037357"
   inkscape:cx="244.86306"
   inkscape:cy="269.06375"
   inkscape:window-x="1920"
   inkscape:window-y="0"
   inkscape:window-maximized="1"
   inkscape:current-layer="Capa_1" />
<g
   id="g6"
   style="fill:#37327e">
	<g
   id="g4"
   style="fill:#37327e">
		<path
   d="M467.677,24.754H194.974c-4.142,0-7.5,3.357-7.5,7.5c0,4.143,3.358,7.5,7.5,7.5h272.703    c16.168,0,29.321,13.153,29.321,29.321v254.807H142.625V39.754h21.73c4.142,0,7.5-3.357,7.5-7.5c0-4.143-3.358-7.5-7.5-7.5H44.321    C19.882,24.754,0,44.637,0,69.075v314.87c0,13.119,10.673,23.792,23.792,23.792h164.515    c-4.887,16.565-14.693,37.065-34.355,51.987c-5.323,4.039-7.385,10.743-5.253,17.078c2.134,6.343,7.836,10.441,14.527,10.441    h185.546c6.691,0,12.393-4.099,14.527-10.441c2.131-6.335,0.069-13.039-5.253-17.078c-19.549-14.836-29.399-35.122-34.359-51.987    h76.003c4.142,0,7.5-3.357,7.5-7.5s-3.358-7.5-7.5-7.5H23.792c-4.848,0-8.792-3.944-8.792-8.792v-45.063h56.689    c4.142,0,7.5-3.357,7.5-7.5s-3.358-7.5-7.5-7.5H15V69.075c0-16.168,13.153-29.321,29.321-29.321h83.304v284.128h-25.319    c-4.142,0-7.5,3.357-7.5,7.5s3.358,7.5,7.5,7.5h394.691v45.063c0,4.848-3.944,8.792-8.792,8.792h-57.899    c-4.142,0-7.5,3.357-7.5,7.5s3.358,7.5,7.5,7.5h57.899c13.119,0,23.792-10.673,23.792-23.792V69.075    C511.998,44.637,492.116,24.754,467.677,24.754z M308.122,407.736c5.199,19.958,16.465,45.428,40.857,63.938    c0.097,0.073,0.13,0.119,0.132,0.119c0.03,0.108-0.061,0.37-0.146,0.43c-0.001,0-0.054,0.021-0.192,0.021H163.226    c-0.132,0-0.186-0.02-0.188-0.02c0,0,0,0,0,0.001c-0.09-0.063-0.181-0.326-0.154-0.424c0-0.001,0.03-0.048,0.136-0.128    c24.571-18.646,35.759-44.433,40.852-63.937H308.122z"
   id="path2"
   style="fill:#37327e" />
	</g>
</g>
<g
   id="g12"
   style="fill:#37327e">
	<g
   id="g10"
   style="fill:#37327e">
		<path
   d="M255.999,347.136c-10.296,0-18.673,8.377-18.673,18.674c0,10.296,8.377,18.673,18.673,18.673s18.673-8.377,18.673-18.673    C274.672,355.513,266.295,347.136,255.999,347.136z M255.999,369.483c-2.025,0-3.673-1.647-3.673-3.673s1.648-3.674,3.673-3.674    c2.025,0,3.673,1.648,3.673,3.674C259.672,367.835,258.024,369.483,255.999,369.483z"
   id="path8"
   style="fill:#985e6d" />
	</g>
</g>
<g
   id="g18"
   style="fill:#985e6d">
	<g
   id="g16"
   style="fill:#985e6d">
		<path
   d="M56.644,119.842c-4.142,0-7.5,3.357-7.5,7.5v1.526c0,4.143,3.357,7.5,7.5,7.5c4.142,0,7.5-3.357,7.5-7.5v-1.526    C64.144,123.199,60.786,119.842,56.644,119.842z"
   id="path14"
   style="fill:#985e6d" />
	</g>
</g>
<g
   id="g24"
   style="fill:#985e6d">
	<g
   id="g22"
   style="fill:#985e6d">
		<path
   d="M80.279,119.842c-4.142,0-7.5,3.357-7.5,7.5v1.526c0,4.143,3.358,7.5,7.5,7.5c4.142,0,7.5-3.357,7.5-7.5v-1.526    C87.779,123.199,84.421,119.842,80.279,119.842z"
   id="path20"
   style="fill:#985e6d" />
	</g>
</g>
<g
   id="g30"
   style="fill:#985e6d">
	<g
   id="g28"
   style="fill:#985e6d">
		<path
   d="M86.231,149.058h-35.54c-4.142,0-7.5,3.357-7.5,7.5s3.358,7.5,7.5,7.5h35.54c4.142,0,7.5-3.357,7.5-7.5    S90.374,149.058,86.231,149.058z"
   id="path26"
   style="fill:#985e6d" />
	</g>
</g>
<g
   id="g36"
   style="fill:#985e6d">
	<g
   id="g34"
   style="fill:#985e6d">
		<path
   d="M86.231,171.46h-35.54c-4.142,0-7.5,3.357-7.5,7.5s3.358,7.5,7.5,7.5h35.54c4.142,0,7.5-3.357,7.5-7.5    S90.374,171.46,86.231,171.46z"
   id="path32"
   style="fill:#985e6d" />
	</g>
</g>
<g
   id="g42"
   style="fill:#985e6d">
	<g
   id="g40"
   style="fill:#985e6d">
		<path
   d="M86.231,193.862h-35.54c-4.142,0-7.5,3.357-7.5,7.5s3.358,7.5,7.5,7.5h35.54c4.142,0,7.5-3.357,7.5-7.5    S90.374,193.862,86.231,193.862z"
   id="path38"
   style="fill:#985e6d" />
	</g>
</g>
<g
   id="g48"
   style="fill:#985e6d">
	<g
   id="g46"
   style="fill:#985e6d">
		<path
   d="M223.85,98.041c-12.387,0-22.465,10.078-22.465,22.466v19.402c0,12.387,10.078,22.465,22.465,22.465    c12.387,0,22.465-10.078,22.465-22.465v-19.402C246.315,108.119,236.237,98.041,223.85,98.041z M231.315,139.909    c0,4.116-3.349,7.465-7.465,7.465c-4.116,0-7.465-3.349-7.465-7.465v-19.402c0-4.116,3.349-7.466,7.465-7.466    c4.116,0,7.465,3.35,7.465,7.466V139.909z"
   id="path44"
   style="fill:#985e6d" />
	</g>
</g>
<g
   id="g54"
   style="fill:#985e6d">
	<g
   id="g52"
   style="fill:#985e6d">
		<path
   d="M342.94,98.041c-12.387,0-22.465,10.078-22.465,22.466v19.402c0,12.387,10.078,22.465,22.465,22.465    c12.387,0,22.465-10.078,22.465-22.465v-19.402C365.405,108.119,355.327,98.041,342.94,98.041z M350.405,139.909    c0,4.116-3.349,7.465-7.465,7.465c-4.116,0-7.465-3.349-7.465-7.465v-19.402c0-4.116,3.349-7.466,7.465-7.466    c4.116,0,7.465,3.35,7.465,7.466V139.909z"
   id="path50"
   style="fill:#985e6d" />
	</g>
</g>
<g
   id="g60"
   style="fill:#985e6d">
	<g
   id="g58"
   style="fill:#985e6d">
		<path
   d="M268.065,98.041c-4.142,0-7.5,3.357-7.5,7.5v47.815c0,4.143,3.358,7.5,7.5,7.5c4.142,0,7.5-3.357,7.5-7.5v-47.815    C275.565,101.398,272.208,98.041,268.065,98.041z"
   id="path56"
   style="fill:#985e6d" />
	</g>
</g>
<g
   id="g66"
   style="fill:#985e6d">
	<g
   id="g64"
   style="fill:#985e6d">
		<path
   d="M297.943,98.041c-4.142,0-7.5,3.357-7.5,7.5v47.815c0,4.143,3.358,7.5,7.5,7.5c4.142,0,7.5-3.357,7.5-7.5v-47.815    C305.443,101.398,302.085,98.041,297.943,98.041z"
   id="path62"
   style="fill:#985e6d" />
	</g>
</g>
<g
   id="g72"
   style="fill:#985e6d">
	<g
   id="g70"
   style="fill:#985e6d">
		<path
   d="M387.633,98.041c-4.142,0-7.5,3.357-7.5,7.5v47.815c0,4.143,3.358,7.5,7.5,7.5c4.142,0,7.5-3.357,7.5-7.5v-47.815    C395.133,101.398,391.775,98.041,387.633,98.041z"
   id="path68"
   style="fill:#985e6d" />
	</g>
</g>
<g
   id="g78"
   style="fill:#985e6d">
	<g
   id="g76"
   style="fill:#985e6d">
		<path
   d="M417.511,98.041c-4.142,0-7.5,3.357-7.5,7.5v47.815c0,4.143,3.358,7.5,7.5,7.5c4.142,0,7.5-3.357,7.5-7.5v-47.815    C425.011,101.398,421.653,98.041,417.511,98.041z"
   id="path74"
   style="fill:#985e6d" />
	</g>
</g>
<g
   id="g84"
   style="fill:#985e6d">
	<g
   id="g82"
   style="fill:#985e6d">
		<path
   d="M404.586,168.202c-12.387,0-22.465,10.078-22.465,22.465v19.402c0,12.387,10.078,22.465,22.465,22.465    c12.387,0,22.465-10.078,22.465-22.465v-19.402C427.051,178.28,416.973,168.202,404.586,168.202z M412.051,210.069    c0,4.116-3.349,7.465-7.465,7.465c-4.116,0-7.465-3.349-7.465-7.465v-19.402c0-4.116,3.349-7.465,7.465-7.465    c4.116,0,7.465,3.349,7.465,7.465V210.069z"
   id="path80"
   style="fill:#985e6d" />
	</g>
</g>
<g
   id="g90"
   style="fill:#985e6d">
	<g
   id="g88"
   style="fill:#985e6d">
		<path
   d="M270.106,168.202c-4.142,0-7.5,3.357-7.5,7.5v47.814c0,4.143,3.358,7.5,7.5,7.5c4.142,0,7.5-3.357,7.5-7.5v-47.814    C277.606,171.56,274.249,168.202,270.106,168.202z"
   id="path86"
   style="fill:#985e6d" />
	</g>
</g>
<g
   id="g96"
   style="fill:#985e6d">
	<g
   id="g94"
   style="fill:#985e6d">
		<path
   d="M299.984,168.202c-4.142,0-7.5,3.357-7.5,7.5v47.814c0,4.143,3.358,7.5,7.5,7.5c4.142,0,7.5-3.357,7.5-7.5v-47.814    C307.484,171.56,304.126,168.202,299.984,168.202z"
   id="path92"
   style="fill:#985e6d" />
	</g>
</g>
<g
   id="g102"
   style="fill:#985e6d">
	<g
   id="g100"
   style="fill:#985e6d">
		<path
   d="M210.952,168.202c-4.142,0-7.5,3.358-7.5,7.5v47.814c0,4.143,3.358,7.5,7.5,7.5c4.142,0,7.5-3.357,7.5-7.5v-47.814    C218.452,171.559,215.094,168.202,210.952,168.202z"
   id="path98"
   style="fill:#985e6d" />
	</g>
</g>
<g
   id="g108"
   style="fill:#985e6d">
	<g
   id="g106"
   style="fill:#985e6d">
		<path
   d="M240.829,168.202c-4.142,0-7.5,3.357-7.5,7.5v47.814c0,4.143,3.358,7.5,7.5,7.5c4.142,0,7.5-3.357,7.5-7.5v-47.814    C248.329,171.56,244.971,168.202,240.829,168.202z"
   id="path104"
   style="fill:#985e6d" />
	</g>
</g>
<g
   id="g114"
   style="fill:#985e6d">
	<g
   id="g112"
   style="fill:#985e6d">
		<path
   d="M359.893,169.72c-4.142,0-7.5,3.357-7.5,7.5v47.814c0,4.143,3.358,7.5,7.5,7.5c4.142,0,7.5-3.357,7.5-7.5V177.22    C367.393,173.077,364.035,169.72,359.893,169.72z"
   id="path110"
   style="fill:#985e6d" />
	</g>
</g>
<g
   id="g120"
   style="fill:#985e6d">
	<g
   id="g118"
   style="fill:#985e6d">
		<path
   d="M330.016,169.72c-4.142,0-7.5,3.357-7.5,7.5v47.814c0,4.143,3.358,7.5,7.5,7.5c4.142,0,7.5-3.357,7.5-7.5V177.22    C337.516,173.077,334.158,169.72,330.016,169.72z"
   id="path116"
   style="fill:#985e6d" />
	</g>
</g>
<g
   id="g126"
   style="fill:#985e6d">
	<g
   id="g124"
   style="fill:#985e6d">
		<path
   d="M286.247,263.534c-4.142,0-7.5,3.358-7.5,7.5v1.173c0,4.143,3.358,7.5,7.5,7.5c4.142,0,7.5-3.357,7.5-7.5v-1.173    C293.747,266.891,290.389,263.534,286.247,263.534z"
   id="path122"
   style="fill:#985e6d" />
	</g>
</g>
<g
   id="g132"
   style="fill:#985e6d">
	<g
   id="g130"
   style="fill:#985e6d">
		<path
   d="M313.197,263.534c-4.142,0-7.5,3.357-7.5,7.5v1.173c0,4.143,3.358,7.5,7.5,7.5c4.142,0,7.5-3.357,7.5-7.5v-1.173    C320.697,266.892,317.339,263.534,313.197,263.534z"
   id="path128"
   style="fill:#985e6d" />
	</g>
</g>
<g
   id="g138"
   style="fill:#985e6d">
	<g
   id="g136"
   style="fill:#985e6d">
		<path
   d="M340.148,263.534c-4.142,0-7.5,3.357-7.5,7.5v1.173c0,4.143,3.358,7.5,7.5,7.5c4.142,0,7.5-3.357,7.5-7.5v-1.173    C347.648,266.891,344.29,263.534,340.148,263.534z"
   id="path134"
   style="fill:#985e6d" />
	</g>
</g>
<g
   id="g140">
</g>
<g
   id="g142">
</g>
<g
   id="g144">
</g>
<g
   id="g146">
</g>
<g
   id="g148">
</g>
<g
   id="g150">
</g>
<g
   id="g152">
</g>
<g
   id="g154">
</g>
<g
   id="g156">
</g>
<g
   id="g158">
</g>
<g
   id="g160">
</g>
<g
   id="g162">
</g>
<g
   id="g164">
</g>
<g
   id="g166">
</g>
<g
   id="g168">
</g>
</svg>