<?xml version="1.0" encoding="UTF-8" standalone="no"?>
<svg
   xmlns:dc="http://purl.org/dc/elements/1.1/"
   xmlns:cc="http://creativecommons.org/ns#"
   xmlns:rdf="http://www.w3.org/1999/02/22-rdf-syntax-ns#"
   xmlns:svg="http://www.w3.org/2000/svg"
   xmlns="http://www.w3.org/2000/svg"
   xmlns:sodipodi="http://sodipodi.sourceforge.net/DTD/sodipodi-0.dtd"
   xmlns:inkscape="http://www.inkscape.org/namespaces/inkscape"
   height="512pt"
   viewBox="-47 0 512 512"
   width="512pt"
   version="1.1"
   id="svg30"
   sodipodi:docname="law-book.svg"
   inkscape:version="0.92.4 (5da689c313, 2019-01-14)">
  <metadata
     id="metadata36">
    <rdf:RDF>
      <cc:Work
         rdf:about="">
        <dc:format>image/svg+xml</dc:format>
        <dc:type
           rdf:resource="http://purl.org/dc/dcmitype/StillImage" />
        <dc:title></dc:title>
      </cc:Work>
    </rdf:RDF>
  </metadata>
  <defs
     id="defs34" />
  <sodipodi:namedview
     pagecolor="#ffffff"
     bordercolor="#666666"
     borderopacity="1"
     objecttolerance="10"
     gridtolerance="10"
     guidetolerance="10"
     inkscape:pageopacity="0"
     inkscape:pageshadow="2"
     inkscape:window-width="1920"
     inkscape:window-height="986"
     id="namedview32"
     showgrid="false"
     inkscape:zoom="0.9777961"
     inkscape:cx="296.83262"
     inkscape:cy="515.06938"
     inkscape:window-x="0"
     inkscape:window-y="234"
     inkscape:window-maximized="1"
     inkscape:current-layer="svg30" />
  <path
     d="m8.535156 426.667969c-4.710937 0-8.535156-3.824219-8.535156-8.535157v-341.332031c0-42.34375 34.449219-76.800781 76.800781-76.800781h332.800781c4.707032 0 8.53125 3.824219 8.53125 8.535156v341.332032c0 4.710937-3.824218 8.53125-8.53125 8.53125h-332.800781c-32.9375 0-59.734375 26.796874-59.734375 59.734374 0 4.710938-3.824218 8.535157-8.53125 8.535157zm68.265625-409.601563c-32.9375 0-59.734375 26.796875-59.734375 59.734375v293.109375c14.089844-17.414062 35.636719-28.578125 59.734375-28.578125h324.265625v-324.265625zm0 0"
     id="path2"
     style="fill:#37327e" />
  <path
     d="m136.535156 426.667969h-59.734375c-4.710937 0-8.535156-3.824219-8.535156-8.535157 0-4.710937 3.824219-8.53125 8.535156-8.53125h59.734375c4.707032 0 8.53125 3.820313 8.53125 8.53125 0 4.710938-3.824218 8.535157-8.53125 8.535157zm0 0"
     id="path4"
     style="fill:#37327e" />
  <path
     d="m238.933594 426.667969h-51.199219c-4.710937 0-8.535156-3.824219-8.535156-8.535157 0-4.710937 3.824219-8.53125 8.535156-8.53125h51.199219c4.710937 0 8.53125 3.820313 8.53125 8.53125 0 4.710938-3.820313 8.535157-8.53125 8.535157zm0 0"
     id="path6"
     style="fill:#37327e" />
  <path
     d="m409.601562 426.667969h-42.667968c-4.710938 0-8.535156-3.824219-8.535156-8.535157 0-4.710937 3.824218-8.53125 8.535156-8.53125h42.667968c4.707032 0 8.53125 3.820313 8.53125 8.53125 0 4.710938-3.824218 8.535157-8.53125 8.535157zm0 0"
     id="path8"
     style="fill:#37327e" />
  <path
     d="m8.535156 426.667969c-4.710937 0-8.535156-3.824219-8.535156-8.535157v-341.332031c0-38.5625 28.886719-71.289062 67.199219-76.136719 2.433593-.3125 4.875.445313 6.707031 2.066407 1.84375 1.613281 2.894531 3.949219 2.894531 6.398437v341.335938c0 4.300781-3.199219 7.925781-7.46875 8.464844-29.796875 3.761718-52.265625 29.21875-52.265625 59.203124 0 4.710938-3.824218 8.535157-8.53125 8.535157zm51.199219-407.050781c-24.894531 7.433593-42.667969 30.515624-42.667969 57.183593v293.179688c10.605469-13.125 25.480469-22.75 42.667969-26.667969zm0 0"
     id="path10"
     style="fill:#37327e" />
  <path
     d="m8.535156 196.265625c-4.710937 0-8.535156-3.820313-8.535156-8.53125v-52.394531c0-38.5625 28.886719-71.289063 67.199219-76.136719 2.433593-.316406 4.875.445313 6.707031 2.066406 1.84375 1.621094 2.894531 3.949219 2.894531 6.398438v52.394531c0 4.300781-3.199219 7.929688-7.46875 8.464844-29.796875 3.765625-52.265625 29.21875-52.265625 59.207031 0 4.710937-3.824218 8.53125-8.53125 8.53125zm51.199219-118.101563c-24.894531 7.433594-42.667969 30.515626-42.667969 57.183594v4.242188c10.605469-13.125 25.480469-22.75 42.667969-26.667969zm0 0"
     id="path12"
     style="fill:#37327e" />
  <path
     d="m8.535156 333.398438c-4.710937 0-8.535156-3.824219-8.535156-8.535157v-52.394531c0-38.5625 28.886719-71.285156 67.199219-76.132812 2.441406-.316407 4.875.441406 6.714843 2.0625 1.835938 1.613281 2.886719 3.953124 2.886719 6.402343v52.394531c0 4.300782-3.199219 7.925782-7.46875 8.464844-29.796875 3.761719-52.265625 29.21875-52.265625 59.203125 0 4.710938-3.824218 8.535157-8.53125 8.535157zm51.199219-118.109376c-24.894531 7.429688-42.667969 30.511719-42.667969 57.179688v4.242188c10.605469-13.125 25.480469-22.75 42.667969-26.667969zm0 0"
     id="path14"
     style="fill:#37327e" />
  <path
     d="m187.734375 512c-2.21875 0-4.402344-.871094-6.035156-2.5l-19.566407-19.566406-19.566406 19.566406c-2.441406 2.441406-6.117187 3.15625-9.300781 1.851562-3.183594-1.324218-5.265625-4.4375-5.265625-7.886718v-85.332032c0-4.710937 3.824219-8.53125 8.535156-8.53125h51.199219c4.710937 0 8.53125 3.820313 8.53125 8.53125v85.332032c0 3.449218-2.082031 6.5625-5.265625 7.886718-1.054688.433594-2.164062.648438-3.265625.648438zm-25.601563-42.667969c2.183594 0 4.371094.835938 6.035157 2.5l11.03125 11.035157v-56.199219h-34.132813v56.199219l11.035156-11.035157c1.664063-1.664062 3.847657-2.5 6.03125-2.5zm0 0"
     id="path16"
     style="fill:#37327e" />
  <path
     d="m409.601562 460.800781h-221.867187c-4.710937 0-8.535156-3.824219-8.535156-8.535156v-25.597656h-34.132813v25.597656c0 4.710937-3.824218 8.535156-8.53125 8.535156h-59.734375c-23.527343 0-42.667969-19.140625-42.667969-42.667969 0-23.527343 19.140626-42.667968 42.667969-42.667968h332.800781c4.707032 0 8.53125 3.824218 8.53125 8.535156v68.265625c0 4.710937-3.824218 8.535156-8.53125 8.535156zm-213.335937-17.066406h204.800781v-51.199219h-324.265625c-14.113281 0-25.601562 11.484375-25.601562 25.597656 0 14.113282 11.488281 25.601563 25.601562 25.601563h51.199219v-25.601563c0-4.710937 3.824219-8.53125 8.535156-8.53125h51.199219c4.710937 0 8.53125 3.820313 8.53125 8.53125zm0 0"
     id="path18"
     style="fill:#37327e" />
  <path
     d="m409.601562 494.933594h-221.867187c-4.710937 0-8.535156-3.824219-8.535156-8.535156v-59.730469h-34.132813v59.730469c0 4.710937-3.824218 8.535156-8.53125 8.535156h-59.734375c-42.351562 0-76.800781-34.457032-76.800781-76.800782s34.449219-76.800781 76.800781-76.800781h332.800781c4.707032 0 8.53125 3.824219 8.53125 8.535157v136.53125c0 4.710937-3.824218 8.535156-8.53125 8.535156zm-213.335937-17.066406h204.800781v-119.46875h-324.265625c-32.9375 0-59.734375 26.796874-59.734375 59.734374s26.796875 59.734376 59.734375 59.734376h51.199219v-59.734376c0-4.710937 3.824219-8.53125 8.535156-8.53125h51.199219c4.710937 0 8.53125 3.820313 8.53125 8.53125zm0 0"
     id="path20"
     style="fill:#37327e" />
  <path
     d="m238.933594 324.265625c-79.992188 0-145.066406-65.074219-145.066406-145.066406 0-79.992188 65.074218-145.066407 145.066406-145.066407 79.992187 0 145.066406 65.074219 145.066406 145.066407 0 79.992187-65.074219 145.066406-145.066406 145.066406zm0-273.066406c-70.578125 0-128 57.421875-128 128s57.421875 128 128 128 128-57.421875 128-128-57.421875-128-128-128zm0 0"
     id="path22"
     style="fill:#985e6d" />
  <path
     d="m238.933594 298.667969c-4.710938 0-8.535156-3.824219-8.535156-8.535157 0-8.148437-18.105469-27.570312-58.570313-52.597656-11.410156-7.058594-18.226563-19.296875-18.226563-32.734375 0-11.8125 4.410157-24.664062 13.097657-38.203125 10.246093-15.96875 6.417969-37.113281-8.714844-48.144531-2.140625-1.417969-3.8125-3.910156-4.070313-6.460937-.261718-2.550782.367188-5.28125 2.1875-7.09375l25.597657-25.597657c2.875-2.875 7.382812-3.328125 10.769531-1.066406 20.625 13.746094 41.523438.136719 41.738281 0 2.867188-1.914063 6.59375-1.914063 9.460938 0 .828125.535156 21.34375 13.59375 41.738281 0 3.386719-2.261719 7.894531-1.808594 10.769531 1.066406l25.597657 25.597657c1.820312 1.8125 2.714843 4.34375 2.460937 6.90625-.257813 2.558593-1.65625 4.855468-3.800781 6.261718-.007813.007813-.527344.375-.535156.386719-15.140626 11.03125-18.960938 32.175781-8.722657 48.144531 8.679688 13.539063 13.089844 26.390625 13.089844 38.203125 0 13.4375-6.816406 25.675781-18.226563 32.734375-40.464843 25.027344-58.574218 44.449219-58.574218 52.597656 0 4.710938-3.820313 8.535157-8.53125 8.535157zm-64.230469-188.238281c16.75 17.210937 19.855469 44.363281 6.367187 65.382812-6.8125 10.597656-10.402343 20.625-10.402343 28.988281 0 7.472657 3.789062 14.292969 10.136719 18.21875 28.457031 17.601563 47.886718 33.226563 58.128906 46.703125 10.238281-13.476562 29.671875-29.101562 58.128906-46.703125 6.347656-3.925781 10.136719-10.746093 10.136719-18.21875 0-8.363281-3.589844-18.390625-10.402344-28.988281-13.488281-21.007812-10.382813-48.164062 6.367187-65.382812l-14.429687-14.429688c-21.101563 10.554688-40.984375 3.4375-49.800781-.914062-8.816406 4.363281-28.699219 11.476562-49.800782.914062zm0 0"
     id="path24"
     style="fill:#985e6d" />
  <path
     d="m264.535156 162.132812h-51.203125c-4.710937 0-8.53125-3.824218-8.53125-8.53125 0-4.710937 3.820313-8.535156 8.53125-8.535156h51.203125c4.707032 0 8.53125 3.824219 8.53125 8.535156 0 4.707032-3.824218 8.53125-8.53125 8.53125zm0 0"
     id="path26"
     style="fill:#985e6d" />
  <path
     d="m264.535156 196.265625h-51.203125c-4.710937 0-8.53125-3.820313-8.53125-8.53125s3.820313-8.535156 8.53125-8.535156h51.203125c4.707032 0 8.53125 3.824219 8.53125 8.535156s-3.824218 8.53125-8.53125 8.53125zm0 0"
     id="path28"
     style="fill:#985e6d" />
</svg>
