<?xml version="1.0" encoding="UTF-8" standalone="no"?>
<svg
   xmlns:dc="http://purl.org/dc/elements/1.1/"
   xmlns:cc="http://creativecommons.org/ns#"
   xmlns:rdf="http://www.w3.org/1999/02/22-rdf-syntax-ns#"
   xmlns:svg="http://www.w3.org/2000/svg"
   xmlns="http://www.w3.org/2000/svg"
   xmlns:sodipodi="http://sodipodi.sourceforge.net/DTD/sodipodi-0.dtd"
   xmlns:inkscape="http://www.inkscape.org/namespaces/inkscape"
   height="512pt"
   viewBox="0 -26 512 512"
   width="512pt"
   version="1.1"
   id="svg40"
   sodipodi:docname="security.svg"
   inkscape:version="0.92.4 (5da689c313, 2019-01-14)">
  <metadata
     id="metadata46">
    <rdf:RDF>
      <cc:Work
         rdf:about="">
        <dc:format>image/svg+xml</dc:format>
        <dc:type
           rdf:resource="http://purl.org/dc/dcmitype/StillImage" />
        <dc:title></dc:title>
      </cc:Work>
    </rdf:RDF>
  </metadata>
  <defs
     id="defs44" />
  <sodipodi:namedview
     pagecolor="#ffffff"
     bordercolor="#666666"
     borderopacity="1"
     objecttolerance="10"
     gridtolerance="10"
     guidetolerance="10"
     inkscape:pageopacity="0"
     inkscape:pageshadow="2"
     inkscape:window-width="3440"
     inkscape:window-height="1403"
     id="namedview42"
     showgrid="false"
     inkscape:zoom="1.3828125"
     inkscape:cx="134.4072"
     inkscape:cy="351.36366"
     inkscape:window-x="1920"
     inkscape:window-y="0"
     inkscape:window-maximized="1"
     inkscape:current-layer="svg40" />
  <path
     d="m452.265625 392.539062h-119.464844c-4.710937 0-8.535156-3.824218-8.535156-8.535156 0-4.707031 3.824219-8.53125 8.535156-8.53125h119.464844c4.710937 0 8.535156 3.824219 8.535156 8.53125 0 4.710938-3.824219 8.535156-8.535156 8.535156zm0 0"
     id="path2"
     style="fill:#985e6d" />
  <path
     d="m298.667969 392.539062h-34.132813c-4.710937 0-8.535156-3.824218-8.535156-8.535156 0-4.707031 3.824219-8.53125 8.535156-8.53125h34.132813c4.710937 0 8.53125 3.824219 8.53125 8.53125 0 4.710938-3.820313 8.535156-8.53125 8.535156zm0 0"
     id="path4"
     style="fill:#985e6d" />
  <path
     d="m473.617188 460.804688h-435.234376c-21.164062 0-38.382812-17.21875-38.382812-38.390626v-213.359374c0-21.160157 17.21875-38.382813 38.382812-38.382813h435.234376c21.164062 0 38.382812 17.222656 38.382812 38.382813v213.367187c0 21.164063-17.21875 38.382813-38.382812 38.382813zm-435.234376-273.066407c-11.75 0-21.316406 9.558594-21.316406 21.316407v213.367187c0 11.75 9.566406 21.316406 21.316406 21.316406h435.234376c11.75 0 21.316406-9.566406 21.316406-21.316406v-213.367187c0-11.75-9.566406-21.316407-21.316406-21.316407zm0 0"
     id="path6"
     style="fill:#37327e" />
  <path
     d="m349.867188 187.738281h-187.734376c-4.710937 0-8.53125-3.820312-8.53125-8.53125v-42.695312c0-18.804688 15.296876-34.105469 34.105469-34.105469h136.585938c18.808593 0 34.105469 15.300781 34.105469 34.105469v42.695312c0 4.710938-3.820313 8.53125-8.53125 8.53125zm-179.199219-17.066406h170.664062v-34.160156c0-9.394531-7.644531-17.039063-17.039062-17.039063h-136.585938c-9.394531 0-17.039062 7.644532-17.039062 17.039063zm0 0"
     id="path8"
     style="fill:#37327e" />
  <path
     d="m315.734375 153.605469h-119.46875c-4.710937 0-8.53125-3.824219-8.53125-8.53125 0-4.710938 3.820313-8.535157 8.53125-8.535157h119.46875c4.710937 0 8.53125 3.824219 8.53125 8.535157 0 4.707031-3.820313 8.53125-8.53125 8.53125zm0 0"
     id="path10"
     style="fill:#37327e" />
  <path
     d="m256 119.472656h-68.265625c-3.039063 0-5.847656-1.613281-7.375-4.234375l-59.730469-102.398437c-1.539062-2.644532-1.554687-5.898438-.027344-8.550782 1.519532-2.652343 4.34375-4.28515575 7.398438-4.28515575h68.265625c3.039063 0 5.847656 1.61328175 7.375 4.23437475l59.730469 102.398438c1.539062 2.648437 1.554687 5.898437.027344 8.550781-1.519532 2.644531-4.34375 4.285156-7.398438 4.285156zm-63.367188-17.066406h48.511719l-49.777343-85.332031h-48.511719zm0 0"
     id="path12"
     style="fill:#37327e" />
  <path
     d="m221.875 119.472656c-2.933594 0-5.792969-1.519531-7.382812-4.234375l-59.730469-102.398437c-2.375-4.070313-1-9.292969 3.070312-11.671875 4.0625-2.382813 9.292969-1 11.675781 3.070312l59.730469 102.398438c2.375 4.070312 1 9.292969-3.070312 11.675781-1.355469.785156-2.832031 1.160156-4.292969 1.160156zm0 0"
     id="path14"
     style="fill:#37327e" />
  <path
     d="m315.734375 119.472656h-68.269531c-3.054688 0-5.878906-1.628906-7.398438-4.285156-1.515625-2.652344-1.507812-5.902344.027344-8.550781l59.734375-102.398438c1.527344-2.628906 4.335937-4.23437475 7.371094-4.23437475h68.265625c3.058594 0 5.882812 1.63281275 7.398437 4.28515575 1.519531 2.652344 1.511719 5.90625-.023437 8.550782l-59.734375 102.398437c-1.527344 2.621094-4.335938 4.234375-7.371094 4.234375zm-53.410156-17.066406h48.511719l49.773437-85.332031h-48.511719zm0 0"
     id="path16"
     style="fill:#37327e" />
  <path
     d="m281.589844 119.472656c-1.457032 0-2.933594-.375-4.289063-1.160156-4.070312-2.371094-5.445312-7.605469-3.074219-11.675781l59.734376-102.398438c2.371093-4.070312 7.601562-5.445312 11.671874-3.070312 4.070313 2.371093 5.445313 7.601562 3.074219 11.671875l-59.734375 102.398437c-1.585937 2.714844-4.445312 4.234375-7.382812 4.234375zm0 0"
     id="path18"
     style="fill:#37327e" />
  <path
     d="m384 358.40625h-119.464844c-4.710937 0-8.535156-3.824219-8.535156-8.535156 0-4.710938 3.824219-8.53125 8.535156-8.53125h119.464844c4.710938 0 8.535156 3.820312 8.535156 8.53125 0 4.710937-3.824218 8.535156-8.535156 8.535156zm0 0"
     id="path20"
     style="fill:#985e6d" />
  <path
     d="m452.265625 358.40625h-34.132813c-4.710937 0-8.53125-3.824219-8.53125-8.535156 0-4.710938 3.820313-8.53125 8.53125-8.53125h34.132813c4.710937 0 8.535156 3.820312 8.535156 8.53125 0 4.710937-3.824219 8.535156-8.535156 8.535156zm0 0"
     id="path22"
     style="fill:#985e6d" />
  <path
     d="m452.265625 324.273438h-119.464844c-4.710937 0-8.535156-3.824219-8.535156-8.535157 0-4.710937 3.824219-8.53125 8.535156-8.53125h119.464844c4.710937 0 8.535156 3.820313 8.535156 8.53125 0 4.710938-3.824219 8.535157-8.535156 8.535157zm0 0"
     id="path24"
     style="fill:#985e6d" />
  <path
     d="m298.667969 324.273438h-34.132813c-4.710937 0-8.535156-3.824219-8.535156-8.535157 0-4.710937 3.824219-8.53125 8.535156-8.53125h34.132813c4.710937 0 8.53125 3.820313 8.53125 8.53125 0 4.710938-3.820313 8.535157-8.53125 8.535157zm0 0"
     id="path26"
     style="fill:#985e6d" />
  <path
     d="m384 290.140625h-119.464844c-4.710937 0-8.535156-3.824219-8.535156-8.535156 0-4.710938 3.824219-8.53125 8.535156-8.53125h119.464844c4.710938 0 8.535156 3.820312 8.535156 8.53125 0 4.710937-3.824218 8.535156-8.535156 8.535156zm0 0"
     id="path28"
     style="fill:#985e6d" />
  <path
     d="m452.265625 290.140625h-34.132813c-4.710937 0-8.53125-3.824219-8.53125-8.535156 0-4.710938 3.820313-8.53125 8.53125-8.53125h34.132813c4.710937 0 8.535156 3.820312 8.535156 8.53125 0 4.710937-3.824219 8.535156-8.535156 8.535156zm0 0"
     id="path30"
     style="fill:#985e6d" />
  <path
     d="m384 256.003906h-119.464844c-4.710937 0-8.535156-3.820312-8.535156-8.53125 0-4.710937 3.824219-8.535156 8.535156-8.535156h119.464844c4.710938 0 8.535156 3.824219 8.535156 8.535156 0 4.710938-3.824218 8.53125-8.535156 8.53125zm0 0"
     id="path32"
     style="fill:#985e6d" />
  <path
     d="m452.265625 256.003906h-34.132813c-4.710937 0-8.53125-3.820312-8.53125-8.53125 0-4.710937 3.820313-8.535156 8.53125-8.535156h34.132813c4.710937 0 8.535156 3.824219 8.535156 8.535156 0 4.710938-3.824219 8.53125-8.535156 8.53125zm0 0"
     id="path34"
     style="fill:#985e6d" />
  <path
     d="m136.535156 418.140625c-1.222656 0-2.433594-.257813-3.570312-.777344-72.054688-33.144531-81.765625-95.855469-81.765625-152.824219 0-3.097656 1.683593-5.957031 4.386719-7.457031l76.800781-42.667969c2.578125-1.433593 5.707031-1.433593 8.285156 0l76.800781 42.667969c2.714844 1.5 4.394532 4.351563 4.394532 7.457031 0 56.976563-9.710938 119.6875-81.765626 152.824219-1.136718.511719-2.347656.777344-3.566406.777344zm-68.234375-148.601563c.90625 69.15625 20.933594 107.503907 68.234375 130.621094 47.296875-23.117187 67.328125-61.464844 68.230469-130.621094l-68.230469-37.90625zm0 0"
     id="path36"
     style="fill:#985e6d" />
  <path
     d="m110.941406 349.871094c-3.011718 0-5.921875-1.59375-7.476562-4.410156-10.628906-19.261719-16.722656-40.566407-18.113282-63.335938-.207031-3.410156 1.636719-6.621094 4.699219-8.15625l34.136719-17.066406c4.203125-2.117188 9.332031-.402344 11.449219 3.8125 2.109375 4.214844.402343 9.34375-3.8125 11.453125l-28.980469 14.488281c1.816406 18.117188 7.046875 35.097656 15.574219 50.550781 2.277343 4.125.777343 9.320313-3.347657 11.589844-1.320312.726563-2.738281 1.074219-4.128906 1.074219zm0 0"
     id="path38"
     style="fill:#985e6d" />
</svg>
