<?xml version="1.0" encoding="UTF-8" standalone="no"?>
<svg
   xmlns:dc="http://purl.org/dc/elements/1.1/"
   xmlns:cc="http://creativecommons.org/ns#"
   xmlns:rdf="http://www.w3.org/1999/02/22-rdf-syntax-ns#"
   xmlns:svg="http://www.w3.org/2000/svg"
   xmlns="http://www.w3.org/2000/svg"
   xmlns:sodipodi="http://sodipodi.sourceforge.net/DTD/sodipodi-0.dtd"
   xmlns:inkscape="http://www.inkscape.org/namespaces/inkscape"
   width="374.98047pt"
   height="220.95312pt"
   viewBox="0 0 374.98047 220.95312"
   version="1.2"
   id="svg130"
   sodipodi:docname="wsj.svg"
   inkscape:version="0.92.4 (5da689c313, 2019-01-14)">
  <metadata
     id="metadata134">
    <rdf:RDF>
      <cc:Work
         rdf:about="">
        <dc:format>image/svg+xml</dc:format>
        <dc:type
           rdf:resource="http://purl.org/dc/dcmitype/StillImage" />
        <dc:title></dc:title>
      </cc:Work>
    </rdf:RDF>
  </metadata>
  <sodipodi:namedview
     pagecolor="#ffffff"
     bordercolor="#666666"
     borderopacity="1"
     objecttolerance="10"
     gridtolerance="10"
     guidetolerance="10"
     inkscape:pageopacity="0"
     inkscape:pageshadow="2"
     inkscape:window-width="1544"
     inkscape:window-height="916"
     id="namedview132"
     showgrid="false"
     fit-margin-top="20"
     fit-margin-left="20"
     fit-margin-right="20"
     fit-margin-bottom="20"
     inkscape:zoom="0.9167571"
     inkscape:cx="428.06834"
     inkscape:cy="118.95732"
     inkscape:window-x="2632"
     inkscape:window-y="313"
     inkscape:window-maximized="0"
     inkscape:current-layer="surface879" />
  <defs
     id="defs53">
    <clipPath
       id="clip1">
      <path
         d="m 265,210 h 9 v 7.26953 h -9 z m 0,0"
         id="path2"
         inkscape:connector-curvature="0" />
    </clipPath>
    <clipPath
       id="clip2">
      <path
         d="m 273,212 h 5 v 5.26953 h -5 z m 0,0"
         id="path5"
         inkscape:connector-curvature="0" />
    </clipPath>
    <clipPath
       id="clip3">
      <path
         d="m 278,210 h 2 v 7.26953 h -2 z m 0,0"
         id="path8"
         inkscape:connector-curvature="0" />
    </clipPath>
    <clipPath
       id="clip4">
      <path
         d="m 281,210 h 2 v 7.26953 h -2 z m 0,0"
         id="path11"
         inkscape:connector-curvature="0" />
    </clipPath>
    <clipPath
       id="clip5">
      <path
         d="m 285,210 h 5 v 7.26953 h -5 z m 0,0"
         id="path14"
         inkscape:connector-curvature="0" />
    </clipPath>
    <clipPath
       id="clip6">
      <path
         d="m 290,211 h 4 v 6.26953 h -4 z m 0,0"
         id="path17"
         inkscape:connector-curvature="0" />
    </clipPath>
    <clipPath
       id="clip7">
      <path
         d="m 294,212 h 3 v 5.26953 h -3 z m 0,0"
         id="path20"
         inkscape:connector-curvature="0" />
    </clipPath>
    <clipPath
       id="clip8">
      <path
         d="m 297,212 h 5 v 5.26953 h -5 z m 0,0"
         id="path23"
         inkscape:connector-curvature="0" />
    </clipPath>
    <clipPath
       id="clip9">
      <path
         d="m 302,212 h 5 v 5.26953 h -5 z m 0,0"
         id="path26"
         inkscape:connector-curvature="0" />
    </clipPath>
    <clipPath
       id="clip10">
      <path
         d="m 307,211 h 4 v 6.26953 h -4 z m 0,0"
         id="path29"
         inkscape:connector-curvature="0" />
    </clipPath>
    <clipPath
       id="clip11">
      <path
         d="m 312,210 h 4 v 7.26953 h -4 z m 0,0"
         id="path32"
         inkscape:connector-curvature="0" />
    </clipPath>
    <clipPath
       id="clip12">
      <path
         d="m 316,212 h 6 v 5.26953 h -6 z m 0,0"
         id="path35"
         inkscape:connector-curvature="0" />
    </clipPath>
    <clipPath
       id="clip13">
      <path
         d="m 322,212 h 5 v 5.26953 h -5 z m 0,0"
         id="path38"
         inkscape:connector-curvature="0" />
    </clipPath>
    <clipPath
       id="clip14">
      <path
         d="m 328,212 h 3 v 5.26953 h -3 z m 0,0"
         id="path41"
         inkscape:connector-curvature="0" />
    </clipPath>
    <clipPath
       id="clip15">
      <path
         d="m 331,212 h 6 v 5.26953 h -6 z m 0,0"
         id="path44"
         inkscape:connector-curvature="0" />
    </clipPath>
    <clipPath
       id="clip16">
      <path
         d="m 337,212 h 5 v 5.26953 h -5 z m 0,0"
         id="path47"
         inkscape:connector-curvature="0" />
    </clipPath>
    <clipPath
       id="clip17">
      <path
         d="m 342,210 h 1.62109 v 7.26953 H 342 Z m 0,0"
         id="path50"
         inkscape:connector-curvature="0" />
    </clipPath>
  </defs>
  <g
     id="surface879"
     transform="translate(20,20)">
    <path
       style="fill:#211e1e;fill-opacity:1;fill-rule:nonzero;stroke:none"
       d="M 9.679688,12.429688 0.714844,11.027344 H 0 V 4.125 h 48.332031 v 6.902344 h -1.34375 c -5.539062,-0.683594 -8.296875,1.402344 -8.296875,6.902344 v 3.460937 L 59.40625,127.77344 71.84375,58 64.945312,22.78125 C 63.554688,13.804688 60.117188,10.34375 53.886719,11.027344 H 53.171875 V 4.125 h 46.968755 v 6.902344 H 99.476562 C 91.878906,10.34375 88.417969,13.113281 88.417969,19.332031 L 109.14063,127.07813 h 1.36718 L 129.17969,24.851562 v -4.144531 c 0,-7.59375 -3.47656,-10.363281 -11.0625,-9.679687 h -2.06641 V 4.125 h 40.71094 v 6.902344 h -2.04297 l -9.67969,1.402344 -6.20703,13.792968 -32.46094,154.023434 H 96.714844 L 76.683594,79.398438 55.945312,180.24609 H 45.585938 L 14.503906,22.78125 9.679688,12.429688"
       id="path123"
       inkscape:connector-curvature="0" />
    <path
       style="fill:#211e1e;fill-opacity:1;fill-rule:nonzero;stroke:none"
       d="m 228.60547,2.054688 v 60.773437 h -6.20703 v -2.070313 c 0,-34.527343 -9.65235,-51.792968 -28.98828,-51.792968 -13.12891,-0.683594 -20.02344,6.21875 -19.35938,21.414062 0,7.609375 2.08203,15.195313 6.92188,22.097656 l 20.71093,18.65625 25.55469,25.558594 c 6.91016,10.343754 10.35938,23.472654 10.35938,37.972654 0,29.01953 -13.8086,43.51953 -40.75,43.51953 -10.35938,0 -20.71485,-3.46093 -31.07032,-11.05859 l -4.16406,10.38672 h -4.83984 v -61.48828 h 5.54297 v 2.07031 c 0,18.64062 4.125,32.46094 11.73437,42.12891 6.23047,6.90234 13.11719,10.36328 20.72656,10.36328 15.89844,0 24.17188,-8.97266 24.17188,-27.64063 0,-17.2539 -10.36719,-33.83984 -31.08203,-49.714841 C 166.44141,77.339844 155.40625,60.074219 155.40625,40.046875 154.71875,27.601562 158.87891,17.9375 166.44141,11.03125 172.67187,3.433594 180.97266,0 191.31641,0 c 10.36718,0 19.35937,3.433594 28.32421,11.03125 l 4.82813,-8.976562 h 4.13672"
       id="path125"
       inkscape:connector-curvature="0" />
    <path
       style="fill:#211e1e;fill-opacity:1;fill-rule:nonzero;stroke:none"
       d="m 276.97656,136.73828 c 0,10.35156 -4.82812,15.87891 -15.19531,16.57422 l 4.81641,13.12891 c 3.44921,4.13671 8.28515,6.20703 13.82812,6.20703 l 12.42578,-5.52735 3.46094,-19.32422 V 21.390625 c -0.70313,-6.898437 -3.46094,-10.351563 -9.66016,-10.351563 h -4.84765 V 4.125 h 53.17578 v 6.914062 h -4.82813 c -6.20703,0 -9.67968,3.453126 -8.96484,10.351563 V 142.95312 c -0.71484,24.875 -13.84375,37.29297 -39.38281,38 -8.98828,-0.70703 -16.60157,-3.44921 -21.42578,-9.68359 -7.58985,-7.59766 -11.03516,-16.58203 -11.03516,-28.31641 l 5.52734,-13.8125 8.98047,-4.83203 c 7.58203,0 12.42188,4.14453 13.125,12.42969"
       id="path127"
       inkscape:connector-curvature="0" />
  </g>
</svg>
