<?xml version="1.0" encoding="UTF-8" standalone="no"?>
<!-- Generator: Adobe Illustrator 16.0.0, SVG Export Plug-In . SVG Version: 6.00 Build 0)  -->

<svg
   xmlns:dc="http://purl.org/dc/elements/1.1/"
   xmlns:cc="http://creativecommons.org/ns#"
   xmlns:rdf="http://www.w3.org/1999/02/22-rdf-syntax-ns#"
   xmlns:svg="http://www.w3.org/2000/svg"
   xmlns="http://www.w3.org/2000/svg"
   xmlns:sodipodi="http://sodipodi.sourceforge.net/DTD/sodipodi-0.dtd"
   xmlns:inkscape="http://www.inkscape.org/namespaces/inkscape"
   version="1.1"
   id="Layer_1"
   x="0px"
   y="0px"
   width="508.77966"
   height="508.77966"
   viewBox="0 0 508.77968 508.77969"
   enable-background="new 0 0 322.115 320.192"
   xml:space="preserve"
   sodipodi:docname="logo_without_text_circle.svg"
   inkscape:version="0.92.3 (2405546, 2018-03-11)"
   inkscape:export-xdpi="96"
   inkscape:export-ydpi="96"><metadata
   id="metadata9"><rdf:RDF><cc:Work
       rdf:about=""><dc:format>image/svg+xml</dc:format><dc:type
         rdf:resource="http://purl.org/dc/dcmitype/StillImage" /></cc:Work></rdf:RDF></metadata><defs
   id="defs7" /><sodipodi:namedview
   pagecolor="#ffffff"
   bordercolor="#666666"
   borderopacity="1"
   objecttolerance="10"
   gridtolerance="10"
   guidetolerance="10"
   inkscape:pageopacity="0"
   inkscape:pageshadow="2"
   inkscape:window-width="1885"
   inkscape:window-height="1025"
   id="namedview5"
   showgrid="false"
   showguides="false"
   inkscape:zoom="0.7370578"
   inkscape:cx="-161.16959"
   inkscape:cy="182.48231"
   inkscape:window-x="1955"
   inkscape:window-y="147"
   inkscape:window-maximized="1"
   inkscape:current-layer="layer1" />

<g
   inkscape:groupmode="layer"
   id="layer3"
   inkscape:label="Background 1"
   transform="translate(-99.720795,166.20136)" /><g
   inkscape:groupmode="layer"
   id="layer2"
   inkscape:label="Background"
   transform="translate(-99.720795,166.20136)" /><g
   inkscape:groupmode="layer"
   id="layer1"
   inkscape:label="Logo"
   transform="translate(-99.720795,166.20136)"><circle
     style="opacity:1;fill:#f2f2f2;fill-opacity:1;fill-rule:nonzero;stroke:none;stroke-width:0;stroke-linecap:round;stroke-linejoin:round;stroke-miterlimit:4;stroke-dasharray:none;stroke-opacity:0.50196081"
     id="path819"
     cx="354.11063"
     cy="88.188469"
     r="254.38983" /><path
     inkscape:connector-curvature="0"
     style="clip-rule:evenodd;fill:#985E6D;fill-rule:evenodd"
     d="m 510.11722,236.65507 c -4.144,-17.401 -10.657,-34.599 -12.034,-52.204 -1.383,-17.19 -13.998,-28.632 -17.197,-44.439 -2.492,-12.328 -7.802,-23.865 -14.259,-34.809 -3.072,-5.207996 -5.687,-6.456996 -10.868,-2.136 -8.069,6.795 -17.439,10.084 -28.039,6.394 -8.063,-2.779 -8.522,-5.743 -2.25,-11.689996 6.826,-6.505001 15.221,-9.058001 24.406,-9.784001 10.619,-0.848 17.382,3.910001 20.671,13.913997 2.613,-0.401 3.321,-2.242996 3.372,-4.515996 -6.081,-22.943001 -12.762,-45.766003 -24.527,-66.501008 -15.139,-26.6459998 -48.156,-38.6549999 -83.603,-31.49399975 -0.925,0.169 -1.734,0.411 -2.601,0.605 0.994,-1.52300015 0.866,-3.56900015 -0.701,-5.94000015 -0.383,-4.9400001 -1.766,-7.7960001 -4.379,-8.5130001 27.618,-6.91 58.08,-2.448 87.987,13.87300025 2.881,-23.40200025 12.034,-42.49600025 31.724,-55.31400025 0.268,-1.498 -0.854,-1.899 -1.874,-2.154 -47.334,-12.361999 -94.858,-16.170999 -142.32,-0.907999 -47.124,15.191999 -77.719,47.763999 -96.032,92.893004 -7.872,19.361 -13.022,39.274002 -13.341,60.216003 -0.14,9.392996 2.078,18.392996 6.355,26.735996 9.586,18.663 6.604,35.994 -4.277,53.128 -7.355,11.575 -17.79,20.926 -23.673,33.527 -4.946,10.619 -6.756,21.736 -5.354,33.554 4.768,-17.287 19.084,-26.21 31.507,-36.791 14.042,-11.958 28.875,-23.24 36.128,-41.171 5.099,-12.678 5.482,-25.146 1.351,-38.454 -6.54,-20.958 -6.132,-41.157997 5.788,-61.229997 11.358,-19.167002 22.921,-37.817007 39.538,-52.758007 7.19,-6.4759998 14.967,-11.51499975 23.03,-15.7749999 -0.727,0.542 -1.479,0.943 -2.155,1.6 2.104,7.8560001 2.945,13.3890002 7.7,12.9970001 -16.024,9.8579998 -31.138,20.7509998 -41.853,36.7080048 -15.074,22.603002 -17.618,45.861003 -4.71,70.483999 7.432,14.094 8.547,28.843 1.23,43.86 48.258,-0.777 91.544,14.94 133.728,36.059 26.185,13.086 49.909,29.862 74.558,45.274 2.168,1.371 4.328,4.953 7.095,2.69 2.301,-1.863 0.51,-5.305 -0.121,-7.931 z"
     id="path2" /></g></svg>