<?xml version="1.0" encoding="UTF-8" standalone="no"?>
<svg
   xmlns:dc="http://purl.org/dc/elements/1.1/"
   xmlns:cc="http://creativecommons.org/ns#"
   xmlns:rdf="http://www.w3.org/1999/02/22-rdf-syntax-ns#"
   xmlns:svg="http://www.w3.org/2000/svg"
   xmlns="http://www.w3.org/2000/svg"
   xmlns:sodipodi="http://sodipodi.sourceforge.net/DTD/sodipodi-0.dtd"
   xmlns:inkscape="http://www.inkscape.org/namespaces/inkscape"
   height="512pt"
   viewBox="0 -73 512 512"
   width="512pt"
   version="1.1"
   id="svg251"
   sodipodi:docname="court.svg"
   inkscape:version="0.92.4 (5da689c313, 2019-01-14)">
  <metadata
     id="metadata257">
    <rdf:RDF>
      <cc:Work
         rdf:about="">
        <dc:format>image/svg+xml</dc:format>
        <dc:type
           rdf:resource="http://purl.org/dc/dcmitype/StillImage" />
        <dc:title />
      </cc:Work>
    </rdf:RDF>
  </metadata>
  <defs
     id="defs255" />
  <sodipodi:namedview
     pagecolor="#ffffff"
     bordercolor="#666666"
     borderopacity="1"
     objecttolerance="10"
     gridtolerance="10"
     guidetolerance="10"
     inkscape:pageopacity="0"
     inkscape:pageshadow="2"
     inkscape:window-width="3440"
     inkscape:window-height="1403"
     id="namedview253"
     showgrid="false"
     inkscape:zoom="1.9555922"
     inkscape:cx="440.62305"
     inkscape:cy="368.68299"
     inkscape:window-x="1920"
     inkscape:window-y="0"
     inkscape:window-maximized="1"
     inkscape:current-layer="svg251" />
  <path
     d="m187.734375 153.601562h-153.601563c-18.824218 0-34.132812-15.308593-34.132812-34.136718 0-18.824219 15.308594-34.132813 34.132812-34.132813h153.601563c18.824219 0 34.132813 15.308594 34.132813 34.132813 0 18.828125-15.308594 34.136718-34.132813 34.136718zm-153.601563-51.203124c-9.410156 0-17.066406 7.65625-17.066406 17.066406 0 9.414062 7.65625 17.070312 17.066406 17.070312h153.601563c9.410156 0 17.066406-7.65625 17.066406-17.070312 0-9.410156-7.65625-17.066406-17.066406-17.066406zm0 0"
     id="path231"
     style="fill:#985e6d" />
  <path
     d="m128 153.601562h-34.132812c-4.710938 0-8.535157-3.824218-8.535157-8.535156v-51.199218c0-4.710938 3.824219-8.535157 8.535157-8.535157h34.132812c4.710938 0 8.535156 3.824219 8.535156 8.535157v51.199218c0 4.710938-3.824218 8.535156-8.535156 8.535156zm-25.601562-17.066406h17.066406v-34.136718h-17.066406zm0 0"
     id="path233"
     style="fill:#985e6d" />
  <path
     d="m349.867188 128h-136.535157c-4.710937 0-8.53125-3.824219-8.53125-8.535156 0-4.707032 3.820313-8.53125 8.53125-8.53125h136.535157c4.710937 0 8.53125 3.824218 8.53125 8.53125 0 4.710937-3.820313 8.535156-8.53125 8.535156zm0 0"
     id="path235"
     style="fill:#985e6d" />
  <path
     d="m469.332031 145.066406h-119.464843c-4.710938 0-8.535157-3.824218-8.535157-8.53125v-34.136718c0-4.707032 3.824219-8.53125 8.535157-8.53125h119.464843c4.710938 0 8.535157 3.824218 8.535157 8.53125v34.136718c0 4.707032-3.824219 8.53125-8.535157 8.53125zm-110.933593-17.066406h102.402343v-17.066406h-102.402343zm0 0"
     id="path237" />
  <path
     d="m460.800781 51.199219h-102.402343c-4.707032 0-8.53125-3.820313-8.53125-8.53125v-34.132813c0-4.710937 3.824218-8.535156 8.53125-8.535156h102.402343c4.710938 0 8.53125 3.824219 8.53125 8.535156v34.132813c0 4.710937-3.820312 8.53125-8.53125 8.53125zm-93.867187-17.066407h85.332031v-17.066406h-85.332031zm0 0"
     id="path239"
     style="fill:#985e6d" />
  <path
     d="m435.199219 110.933594h-51.199219c-4.710938 0-8.535156-3.824219-8.535156-8.535156v-22.757813l-23.890625-31.855469c-2.832031-3.769531-2.066407-9.121094 1.707031-11.945312 3.777344-2.832032 9.121094-2.054688 11.945312 1.707031l25.601563 34.132813c1.109375 1.476562 1.707031 3.277343 1.707031 5.121093v17.066407h34.132813v-17.066407c0-1.84375.597656-3.644531 1.707031-5.121093l25.597656-34.132813c2.824219-3.753906 8.167969-4.53125 11.949219-1.707031 3.769531 2.824218 4.53125 8.175781 1.703125 11.945312l-23.890625 31.855469v22.757813c0 4.710937-3.824219 8.535156-8.535156 8.535156zm0 0"
     id="path241"
     style="fill:#985e6d" />
  <path
     d="m460.800781 238.933594h-102.402343c-4.707032 0-8.53125-3.824219-8.53125-8.535156v-34.132813c0-4.710937 3.824218-8.53125 8.53125-8.53125h102.402343c4.710938 0 8.53125 3.820313 8.53125 8.53125v34.132813c0 4.710937-3.820312 8.535156-8.53125 8.535156zm-93.867187-17.066406h85.332031v-17.066407h-85.332031zm0 0"
     id="path243"
     style="fill:#985e6d" />
  <path
     d="m460.808594 204.800781c-2.59375 0-5.152344-1.179687-6.835938-3.414062l-25.597656-34.132813c-1.109375-1.476562-1.707031-3.277344-1.707031-5.121094v-17.066406h-34.132813v17.066406c0 1.84375-.597656 3.644532-1.707031 5.121094l-25.601563 34.132813c-2.824218 3.761719-8.167968 4.546875-11.945312 1.707031-3.773438-2.824219-4.53125-8.175781-1.707031-11.945312l23.890625-31.855469v-22.757813c0-4.710937 3.824218-8.535156 8.535156-8.535156h51.199219c4.710937 0 8.535156 3.824219 8.535156 8.535156v22.757813l23.890625 31.855469c2.835938 3.769531 2.066406 9.121093-1.703125 11.945312-1.539063 1.152344-3.339844 1.707031-5.113281 1.707031zm0 0"
     id="path245"
     style="fill:#985e6d" />
  <path
     d="m503.464844 366.933594h-187.730469c-4.710937 0-8.535156-3.824219-8.535156-8.535156v-34.132813c0-4.710937 3.824219-8.53125 8.535156-8.53125h187.730469c4.710937 0 8.535156 3.820313 8.535156 8.53125v34.132813c0 4.710937-3.824219 8.535156-8.535156 8.535156zm-179.199219-17.066406h170.667969v-17.066407h-170.667969zm0 0"
     id="path247"
     style="fill:#37327e" />
  <path
     d="m486.398438 332.800781h-153.597657c-4.710937 0-8.535156-3.824219-8.535156-8.535156v-17.109375c0-14.097656 11.460937-25.554688 25.558594-25.554688h119.558593c14.089844 0 25.550782 11.457032 25.550782 25.554688v17.109375c0 4.710937-3.824219 8.535156-8.535156 8.535156zm-145.066407-17.066406h136.535157v-8.578125c0-4.683594-3.804688-8.488281-8.492188-8.488281h-119.550781c-4.683594 0-8.492188 3.804687-8.492188 8.488281zm0 0"
     id="path249"
     style="fill:#37327e" />
  <path
     style="fill:#985e6d"
     id="path3454"
     d="m435.199219 110.933594h-51.199219c-4.710938 0-8.535156-3.824219-8.535156-8.535156v-22.757813l-23.890625-31.855469c-2.832031-3.769531-2.066407-9.121094 1.707031-11.945312 3.777344-2.832032 9.121094-2.054688 11.945312 1.707031l25.601563 34.132813c1.109375 1.476562 1.707031 3.277343 1.707031 5.121093v17.066407h34.132813v-17.066407c0-1.84375.597656-3.644531 1.707031-5.121093l25.597656-34.132813c2.824219-3.753906 8.167969-4.53125 11.949219-1.707031 3.769531 2.824218 4.53125 8.175781 1.703125 11.945312l-23.890625 31.855469v22.757813c0 4.710937-3.824219 8.535156-8.535156 8.535156zm0 0" />
  <path
     style="fill:#985e6d"
     id="path3456"
     d="m460.808594 204.800781c-2.59375 0-5.152344-1.179687-6.835938-3.414062l-25.597656-34.132813c-1.109375-1.476562-1.707031-3.277344-1.707031-5.121094v-17.066406h-34.132813v17.066406c0 1.84375-.597656 3.644532-1.707031 5.121094l-25.601563 34.132813c-2.824218 3.761719-8.167968 4.546875-11.945312 1.707031-3.773438-2.824219-4.53125-8.175781-1.707031-11.945312l23.890625-31.855469v-22.757813c0-4.710937 3.824218-8.535156 8.535156-8.535156h51.199219c4.710937 0 8.535156 3.824219 8.535156 8.535156v22.757813l23.890625 31.855469c2.835938 3.769531 2.066406 9.121093-1.703125 11.945312-1.539063 1.152344-3.339844 1.707031-5.113281 1.707031zm0 0" />
  <path
     id="path3458"
     d="m469.332031 145.066406h-119.464843c-4.710938 0-8.535157-3.824218-8.535157-8.53125v-34.136718c0-4.707032 3.824219-8.53125 8.535157-8.53125h119.464843c4.710938 0 8.535157 3.824218 8.535157 8.53125v34.136718c0 4.707032-3.824219 8.53125-8.535157 8.53125zm-110.933593-17.066406h102.402343v-17.066406h-102.402343zm0 0"
     style="fill:#985e6d" />
</svg>
