<?xml version="1.0" encoding="UTF-8" standalone="no"?>
<svg
   xmlns:dc="http://purl.org/dc/elements/1.1/"
   xmlns:cc="http://creativecommons.org/ns#"
   xmlns:rdf="http://www.w3.org/1999/02/22-rdf-syntax-ns#"
   xmlns:svg="http://www.w3.org/2000/svg"
   xmlns="http://www.w3.org/2000/svg"
   xmlns:sodipodi="http://sodipodi.sourceforge.net/DTD/sodipodi-0.dtd"
   xmlns:inkscape="http://www.inkscape.org/namespaces/inkscape"
   height="512pt"
   viewBox="-9 0 512 512"
   width="512pt"
   version="1.1"
   id="svg26"
   sodipodi:docname="justice.svg"
   inkscape:version="0.92.4 (5da689c313, 2019-01-14)">
  <metadata
     id="metadata32">
    <rdf:RDF>
      <cc:Work
         rdf:about="">
        <dc:format>image/svg+xml</dc:format>
        <dc:type
           rdf:resource="http://purl.org/dc/dcmitype/StillImage" />
        <dc:title></dc:title>
      </cc:Work>
    </rdf:RDF>
  </metadata>
  <defs
     id="defs30" />
  <sodipodi:namedview
     pagecolor="#ffffff"
     bordercolor="#666666"
     borderopacity="1"
     objecttolerance="10"
     gridtolerance="10"
     guidetolerance="10"
     inkscape:pageopacity="0"
     inkscape:pageshadow="2"
     inkscape:window-width="3440"
     inkscape:window-height="1403"
     id="namedview28"
     showgrid="false"
     inkscape:zoom="0.34570313"
     inkscape:cx="347.11864"
     inkscape:cy="341.33333"
     inkscape:window-x="1920"
     inkscape:window-y="0"
     inkscape:window-maximized="1"
     inkscape:current-layer="svg26" />
  <path
     d="m409.601562 145.066406h-324.269531c-4.710937 0-8.53125-3.824218-8.53125-8.53125 0-23.527344 19.140625-42.667968 42.664063-42.667968h256c23.527344 0 42.667968 19.140624 42.667968 42.667968 0 4.707032-3.824218 8.53125-8.53125 8.53125zm-314.265624-17.066406h304.273437c-3.527344-9.933594-13.015625-17.066406-24.144531-17.066406h-256c-11.125 0-20.613282 7.132812-24.128906 17.066406zm0 0"
     id="path2"
     style="fill:#985e6d" />
  <path
     d="m392.535156 512h-290.136718c-4.707032 0-8.53125-3.824219-8.53125-8.535156v-17.066406c0-14.113282 11.484374-25.597657 25.597656-25.597657h256c14.117187 0 25.601562 11.484375 25.601562 25.597657v17.066406c0 4.710937-3.824218 8.535156-8.53125 8.535156zm-281.601562-17.066406h273.066406v-8.535156c0-4.699219-3.832031-8.53125-8.535156-8.53125h-256c-4.707032 0-8.53125 3.832031-8.53125 8.53125zm0 0"
     id="path4"
     style="fill:#37327e" />
  <path
     d="m366.933594 477.867188h-238.933594c-4.710938 0-8.535156-3.824219-8.535156-8.535157v-17.074219c0-14.113281 11.488281-25.589843 25.59375-25.589843h204.816406c14.113281 0 25.589844 11.476562 25.589844 25.589843v17.074219c0 4.710938-3.820313 8.535157-8.53125 8.535157zm-230.398438-17.066407h221.863282v-8.542969c0-4.703124-3.820313-8.523437-8.523438-8.523437h-204.816406c-4.703125 0-8.523438 3.820313-8.523438 8.523437zm0 0"
     id="path6"
     style="fill:#37327e" />
  <path
     d="m281.601562 443.734375h-68.269531c-4.710937 0-8.53125-3.824219-8.53125-8.535156v-85.332031c0-4.710938 3.820313-8.535157 8.53125-8.535157h68.269531c4.707032 0 8.53125 3.824219 8.53125 8.535157v85.332031c0 4.710937-3.824218 8.535156-8.53125 8.535156zm-59.734374-17.066406h51.199218v-68.269531h-51.199218zm0 0"
     id="path8"
     style="fill:#37327e" />
  <path
     d="m264.535156 358.398438h-34.136718c-4.707032 0-8.53125-3.820313-8.53125-8.53125v-213.332032c0-4.710937 3.824218-8.535156 8.53125-8.535156h34.136718c4.707032 0 8.53125 3.824219 8.53125 8.535156v213.332032c0 4.710937-3.824218 8.53125-8.53125 8.53125zm-25.601562-17.066407h17.066406v-196.265625h-17.066406zm0 0"
     id="path10"
     style="fill:#37327e" />
  <path
     d="m8.523438 281.601562c-1.414063 0-2.847657-.351562-4.171876-1.09375-4.105468-2.3125-5.5625-7.507812-3.25-11.621093l76.800782-136.535157c2.3125-4.105468 7.507812-5.570312 11.621094-3.25 4.105468 2.3125 5.5625 7.507813 3.25 11.621094l-76.800782 136.535156c-1.570312 2.773438-4.460937 4.34375-7.449218 4.34375zm0 0"
     id="path12"
     style="fill:#985e6d" />
  <path
     d="m110.933594 332.800781h-51.199219c-32.941406 0-59.734375-26.796875-59.734375-59.734375 0-4.710937 3.824219-8.53125 8.535156-8.53125h153.597656c4.710938 0 8.535157 3.820313 8.535157 8.53125 0 32.9375-26.796875 59.734375-59.734375 59.734375zm-93.003906-51.199219c3.96875 19.445313 21.203124 34.132813 41.8125 34.132813h51.199218c20.609375 0 37.847656-14.6875 41.8125-34.132813zm0 0"
     id="path14"
     style="fill:#985e6d" />
  <path
     d="m162.140625 281.601562c-2.984375 0-5.878906-1.570312-7.449219-4.355468l-76.800781-136.53125c-2.3125-4.105469-.851563-9.308594 3.253906-11.621094 4.101563-2.3125 9.308594-.855469 11.621094 3.25l76.800781 136.53125c2.3125 4.105469.851563 9.3125-3.25 11.625-1.324218.75-2.757812 1.101562-4.175781 1.101562zm0 0"
     id="path16"
     style="fill:#985e6d" />
  <path
     d="m332.792969 281.601562c-1.417969 0-2.851563-.351562-4.175781-1.09375-4.101563-2.3125-5.5625-7.507812-3.25-11.621093l76.800781-136.535157c2.3125-4.105468 7.507812-5.570312 11.621093-3.25 4.105469 2.3125 5.566407 7.507813 3.253907 11.621094l-76.800781 136.535156c-1.570313 2.773438-4.464844 4.34375-7.449219 4.34375zm0 0"
     id="path18"
     style="fill:#985e6d" />
  <path
     d="m435.199219 332.800781h-51.199219c-32.9375 0-59.734375-26.796875-59.734375-59.734375 0-4.710937 3.824219-8.53125 8.535156-8.53125h153.597657c4.710937 0 8.535156 3.820313 8.535156 8.53125 0 32.9375-26.796875 59.734375-59.734375 59.734375zm-93.003907-51.199219c3.96875 19.445313 21.207032 34.132813 41.8125 34.132813h51.199219c20.609375 0 37.847657-14.6875 41.816407-34.132813zm0 0"
     id="path20"
     style="fill:#985e6d" />
  <path
     d="m486.410156 281.601562c-2.988281 0-5.882812-1.570312-7.453125-4.355468l-76.796875-136.53125c-2.3125-4.105469-.855468-9.308594 3.25-11.621094 4.105469-2.3125 9.308594-.855469 11.621094 3.25l76.800781 136.53125c2.3125 4.105469.855469 9.3125-3.25 11.625-1.324219.75-2.757812 1.101562-4.171875 1.101562zm0 0"
     id="path22"
     style="fill:#985e6d" />
  <path
     d="m264.535156 110.933594h-34.136718c-4.707032 0-8.53125-3.824219-8.53125-8.535156v-76.796876c0-14.117187 11.484374-25.601562 25.597656-25.601562 14.117187 0 25.601562 11.484375 25.601562 25.601562v76.796876c0 4.710937-3.824218 8.535156-8.53125 8.535156zm-25.601562-17.066406h17.066406v-68.265626c0-4.703124-3.824219-8.535156-8.535156-8.535156-4.707032 0-8.53125 3.832032-8.53125 8.535156zm0 0"
     id="path24"
     style="fill:#37327e" />
  <path
     style="fill:#985e6d"
     id="path839"
     d="m409.601562 145.066406h-324.269531c-4.710937 0-8.53125-3.824218-8.53125-8.53125 0-23.527344 19.140625-42.667968 42.664063-42.667968h256c23.527344 0 42.667968 19.140624 42.667968 42.667968 0 4.707032-3.824218 8.53125-8.53125 8.53125zm-314.265624-17.066406h304.273437c-3.527344-9.933594-13.015625-17.066406-24.144531-17.066406h-256c-11.125 0-20.613282 7.132812-24.128906 17.066406zm0 0" />
</svg>
