<?xml version="1.0" encoding="UTF-8" standalone="no"?>
<!-- Generator: Adobe Illustrator 19.0.0, SVG Export Plug-In . SVG Version: 6.00 Build 0)  -->

<svg
   xmlns:dc="http://purl.org/dc/elements/1.1/"
   xmlns:cc="http://creativecommons.org/ns#"
   xmlns:rdf="http://www.w3.org/1999/02/22-rdf-syntax-ns#"
   xmlns:svg="http://www.w3.org/2000/svg"
   xmlns="http://www.w3.org/2000/svg"
   xmlns:sodipodi="http://sodipodi.sourceforge.net/DTD/sodipodi-0.dtd"
   xmlns:inkscape="http://www.inkscape.org/namespaces/inkscape"
   version="1.1"
   id="Capa_1"
   x="0px"
   y="0px"
   viewBox="0 0 512 512"
   style="enable-background:new 0 0 512 512;"
   xml:space="preserve"
   sodipodi:docname="open-book-1.svg"
   inkscape:version="0.92.4 (5da689c313, 2019-01-14)"><metadata
   id="metadata456"><rdf:RDF><cc:Work
       rdf:about=""><dc:format>image/svg+xml</dc:format><dc:type
         rdf:resource="http://purl.org/dc/dcmitype/StillImage" /><dc:title /></cc:Work></rdf:RDF></metadata><defs
   id="defs454" /><sodipodi:namedview
   pagecolor="#ffffff"
   bordercolor="#666666"
   borderopacity="1"
   objecttolerance="10"
   gridtolerance="10"
   guidetolerance="10"
   inkscape:pageopacity="0"
   inkscape:pageshadow="2"
   inkscape:window-width="3440"
   inkscape:window-height="1403"
   id="namedview452"
   showgrid="false"
   inkscape:zoom="2.6074563"
   inkscape:cx="52.811917"
   inkscape:cy="279.90262"
   inkscape:window-x="1920"
   inkscape:window-y="0"
   inkscape:window-maximized="1"
   inkscape:current-layer="Capa_1" />
<g
   id="g263">
	<g
   id="g261">
		<path
   d="M213.333,46.933H42.667c-4.71,0-8.533,3.814-8.533,8.533V396.8c0,4.719,3.823,8.533,8.533,8.533H210.97l40.636,24.38    c1.357,0.811,2.876,1.22,4.395,1.22c1.451,0,2.901-0.367,4.207-1.109c2.671-1.519,4.326-4.352,4.326-7.424V98.133    C264.533,69.897,241.57,46.933,213.333,46.933z M247.467,407.322l-29.739-17.835c-1.331-0.802-2.85-1.22-4.395-1.22H51.2V64    h162.133c18.825,0,34.133,15.309,34.133,34.133V407.322z"
   id="path259"
   style="fill:#37327e" />
	</g>
</g>
<g
   id="g269">
	<g
   id="g267">
		<path
   d="M503.467,81.067h-34.133c-4.71,0-8.533,3.814-8.533,8.533v298.667H298.667c-1.545,0-3.063,0.418-4.395,1.22L256,412.45    l-38.272-22.963c-1.331-0.802-2.85-1.22-4.395-1.22H51.2V89.6c0-4.719-3.823-8.533-8.533-8.533H8.533    C3.823,81.067,0,84.881,0,89.6v341.333c0,4.719,3.823,8.533,8.533,8.533H210.97l40.636,24.38c1.357,0.811,2.876,1.22,4.395,1.22    s3.038-0.41,4.395-1.22l40.636-24.38h202.436c4.71,0,8.533-3.814,8.533-8.533V89.6C512,84.881,508.177,81.067,503.467,81.067z     M494.933,422.4H298.667c-1.545,0-3.063,0.418-4.395,1.22L256,446.583l-38.272-22.963c-1.331-0.802-2.85-1.22-4.395-1.22H17.067    V98.133h17.067V396.8c0,4.719,3.823,8.533,8.533,8.533H210.97l40.644,24.38c2.705,1.613,6.076,1.613,8.781,0l40.636-24.38h168.303    c4.71,0,8.533-3.814,8.533-8.533V98.133h17.067V422.4z"
   id="path265"
   style="fill:#37327e" />
	</g>
</g>
<g
   id="g275">
	<g
   id="g273">
		<path
   d="M469.333,46.933H298.667c-28.237,0-51.2,22.963-51.2,51.2V422.4c0,3.072,1.655,5.905,4.326,7.424    c1.306,0.742,2.756,1.109,4.207,1.109c1.519,0,3.038-0.41,4.395-1.22l40.636-24.38h168.303c4.71,0,8.533-3.814,8.533-8.533V55.467    C477.867,50.748,474.044,46.933,469.333,46.933z M460.8,388.267H298.667c-1.545,0-3.063,0.418-4.395,1.212l-29.739,17.843V98.133    c0-18.825,15.309-34.133,34.133-34.133H460.8V388.267z"
   id="path271"
   style="fill:#37327e" />
	</g>
</g>
<g
   id="g281"
   style="fill:#985e6d">
	<g
   id="g279"
   style="fill:#985e6d">
		<path
   d="M221.867,106.667h-59.733c-4.71,0-8.533,3.814-8.533,8.533s3.823,8.533,8.533,8.533h59.733    c4.71,0,8.533-3.814,8.533-8.533S226.577,106.667,221.867,106.667z"
   id="path277"
   style="fill:#985e6d" />
	</g>
</g>
<g
   id="g287"
   style="fill:#985e6d">
	<g
   id="g285"
   style="fill:#985e6d">
		<path
   d="M221.867,140.8h-59.733c-4.71,0-8.533,3.814-8.533,8.533s3.823,8.533,8.533,8.533h59.733c4.71,0,8.533-3.814,8.533-8.533    S226.577,140.8,221.867,140.8z"
   id="path283"
   style="fill:#985e6d" />
	</g>
</g>
<g
   id="g293"
   style="fill:#985e6d">
	<g
   id="g291"
   style="fill:#985e6d">
		<path
   d="M99.9,143.3l-17.067-17.067c-3.337-3.337-8.73-3.337-12.066,0c-3.337,3.337-3.337,8.73,0,12.066l17.067,17.067    c1.664,1.664,3.849,2.5,6.033,2.5c2.185,0,4.369-0.836,6.033-2.5C103.236,152.03,103.236,146.637,99.9,143.3z"
   id="path289"
   style="fill:#985e6d" />
	</g>
</g>
<g
   id="g299"
   style="fill:#985e6d">
	<g
   id="g297"
   style="fill:#985e6d">
		<path
   d="M134.033,109.167c-3.337-3.337-8.73-3.337-12.066,0L87.834,143.3c-3.337,3.337-3.337,8.73,0,12.066    c1.664,1.664,3.849,2.5,6.033,2.5c2.185,0,4.369-0.836,6.033-2.5l34.133-34.133C137.37,117.896,137.37,112.503,134.033,109.167z"
   id="path295"
   style="fill:#985e6d" />
	</g>
</g>
<g
   id="g305"
   style="fill:#985e6d">
	<g
   id="g303"
   style="fill:#985e6d">
		<path
   d="M221.867,200.533h-59.733c-4.71,0-8.533,3.814-8.533,8.533s3.823,8.533,8.533,8.533h59.733    c4.71,0,8.533-3.814,8.533-8.533S226.577,200.533,221.867,200.533z"
   id="path301"
   style="fill:#985e6d" />
	</g>
</g>
<g
   id="g311"
   style="fill:#985e6d">
	<g
   id="g309"
   style="fill:#985e6d">
		<path
   d="M221.867,234.667h-59.733c-4.71,0-8.533,3.814-8.533,8.533s3.823,8.533,8.533,8.533h59.733    c4.71,0,8.533-3.814,8.533-8.533S226.577,234.667,221.867,234.667z"
   id="path307"
   style="fill:#985e6d" />
	</g>
</g>
<g
   id="g317"
   style="fill:#985e6d">
	<g
   id="g315"
   style="fill:#985e6d">
		<path
   d="M99.9,237.167L82.833,220.1c-3.337-3.337-8.73-3.337-12.066,0c-3.337,3.336-3.337,8.73,0,12.066l17.067,17.067    c1.664,1.664,3.849,2.5,6.033,2.5c2.185,0,4.369-0.836,6.033-2.5C103.236,245.897,103.236,240.503,99.9,237.167z"
   id="path313"
   style="fill:#985e6d" />
	</g>
</g>
<g
   id="g323"
   style="fill:#985e6d">
	<g
   id="g321"
   style="fill:#985e6d">
		<path
   d="M134.033,203.034c-3.337-3.337-8.73-3.337-12.066,0l-34.133,34.133c-3.337,3.337-3.337,8.73,0,12.066    c1.664,1.664,3.849,2.5,6.033,2.5c2.185,0,4.369-0.836,6.033-2.5l34.133-34.133C137.37,211.763,137.37,206.37,134.033,203.034z"
   id="path319"
   style="fill:#985e6d" />
	</g>
</g>
<g
   id="g329"
   style="fill:#985e6d">
	<g
   id="g327"
   style="fill:#985e6d">
		<path
   d="M221.867,294.4h-59.733c-4.71,0-8.533,3.814-8.533,8.533s3.823,8.533,8.533,8.533h59.733c4.71,0,8.533-3.814,8.533-8.533    S226.577,294.4,221.867,294.4z"
   id="path325"
   style="fill:#985e6d" />
	</g>
</g>
<g
   id="g335"
   style="fill:#985e6d">
	<g
   id="g333"
   style="fill:#985e6d">
		<path
   d="M221.867,328.533h-59.733c-4.71,0-8.533,3.814-8.533,8.533s3.823,8.533,8.533,8.533h59.733    c4.71,0,8.533-3.814,8.533-8.533S226.577,328.533,221.867,328.533z"
   id="path331"
   style="fill:#985e6d" />
	</g>
</g>
<g
   id="g341"
   style="fill:#985e6d">
	<g
   id="g339"
   style="fill:#985e6d">
		<path
   d="M99.9,331.034l-17.067-17.067c-3.337-3.336-8.73-3.336-12.066,0c-3.337,3.337-3.337,8.73,0,12.066L87.834,343.1    c1.664,1.664,3.849,2.5,6.033,2.5c2.185,0,4.369-0.836,6.033-2.5C103.236,339.763,103.236,334.37,99.9,331.034z"
   id="path337"
   style="fill:#985e6d" />
	</g>
</g>
<g
   id="g347"
   style="fill:#985e6d">
	<g
   id="g345"
   style="fill:#985e6d">
		<path
   d="M134.033,296.9c-3.337-3.337-8.73-3.337-12.066,0l-34.133,34.133c-3.337,3.337-3.337,8.73,0,12.066    c1.664,1.664,3.849,2.5,6.033,2.5c2.185,0,4.369-0.836,6.033-2.5l34.133-34.133C137.37,305.63,137.37,300.237,134.033,296.9z"
   id="path343"
   style="fill:#985e6d" />
	</g>
</g>
<g
   id="g353"
   style="fill:#985e6d">
	<g
   id="g351"
   style="fill:#985e6d">
		<path
   d="M435.2,106.667h-59.733c-4.71,0-8.533,3.814-8.533,8.533s3.823,8.533,8.533,8.533H435.2c4.71,0,8.533-3.814,8.533-8.533    S439.91,106.667,435.2,106.667z"
   id="path349"
   style="fill:#985e6d" />
	</g>
</g>
<g
   id="g359"
   style="fill:#985e6d">
	<g
   id="g357"
   style="fill:#985e6d">
		<path
   d="M435.2,140.8h-59.733c-4.71,0-8.533,3.814-8.533,8.533s3.823,8.533,8.533,8.533H435.2c4.71,0,8.533-3.814,8.533-8.533    S439.91,140.8,435.2,140.8z"
   id="path355"
   style="fill:#985e6d" />
	</g>
</g>
<g
   id="g365"
   style="fill:#985e6d">
	<g
   id="g363"
   style="fill:#985e6d">
		<path
   d="M330.3,109.167c-3.337-3.337-8.73-3.337-12.066,0L284.1,143.3c-3.337,3.337-3.337,8.73,0,12.066    c1.664,1.664,3.849,2.5,6.033,2.5c2.185,0,4.369-0.836,6.033-2.5l34.133-34.133C333.636,117.896,333.636,112.503,330.3,109.167z"
   id="path361"
   style="fill:#985e6d" />
	</g>
</g>
<g
   id="g371"
   style="fill:#985e6d">
	<g
   id="g369"
   style="fill:#985e6d">
		<path
   d="M435.2,200.533h-59.733c-4.71,0-8.533,3.814-8.533,8.533s3.823,8.533,8.533,8.533H435.2c4.71,0,8.533-3.814,8.533-8.533    S439.91,200.533,435.2,200.533z"
   id="path367"
   style="fill:#985e6d" />
	</g>
</g>
<g
   id="g377"
   style="fill:#985e6d">
	<g
   id="g375"
   style="fill:#985e6d">
		<path
   d="M435.2,234.667h-59.733c-4.71,0-8.533,3.814-8.533,8.533s3.823,8.533,8.533,8.533H435.2c4.71,0,8.533-3.814,8.533-8.533    S439.91,234.667,435.2,234.667z"
   id="path373"
   style="fill:#985e6d" />
	</g>
</g>
<g
   id="g383"
   style="fill:#985e6d">
	<g
   id="g381"
   style="fill:#985e6d">
		<path
   d="M435.2,294.4h-59.733c-4.71,0-8.533,3.814-8.533,8.533s3.823,8.533,8.533,8.533H435.2c4.71,0,8.533-3.814,8.533-8.533    S439.91,294.4,435.2,294.4z"
   id="path379"
   style="fill:#985e6d" />
	</g>
</g>
<g
   id="g389"
   style="fill:#985e6d">
	<g
   id="g387"
   style="fill:#985e6d">
		<path
   d="M435.2,328.533h-59.733c-4.71,0-8.533,3.814-8.533,8.533s3.823,8.533,8.533,8.533H435.2c4.71,0,8.533-3.814,8.533-8.533    S439.91,328.533,435.2,328.533z"
   id="path385"
   style="fill:#985e6d" />
	</g>
</g>
<g
   id="g395"
   style="fill:#985e6d">
	<g
   id="g393"
   style="fill:#985e6d">
		<path
   d="M330.3,143.3l-34.133-34.133c-3.337-3.337-8.73-3.337-12.066,0s-3.337,8.73,0,12.066l34.133,34.133    c1.664,1.664,3.849,2.5,6.033,2.5c2.185,0,4.369-0.836,6.033-2.5C333.636,152.03,333.636,146.637,330.3,143.3z"
   id="path391"
   style="fill:#985e6d" />
	</g>
</g>
<g
   id="g401"
   style="fill:#985e6d">
	<g
   id="g399"
   style="fill:#985e6d">
		<path
   d="M330.3,203.034c-3.337-3.337-8.73-3.337-12.066,0L284.1,237.167c-3.337,3.337-3.337,8.73,0,12.066    c1.664,1.664,3.849,2.5,6.033,2.5c2.185,0,4.369-0.836,6.033-2.5L330.3,215.1C333.636,211.763,333.636,206.37,330.3,203.034z"
   id="path397"
   style="fill:#985e6d" />
	</g>
</g>
<g
   id="g407"
   style="fill:#985e6d">
	<g
   id="g405"
   style="fill:#985e6d">
		<path
   d="M330.3,237.167l-34.133-34.133c-3.337-3.337-8.73-3.337-12.066,0c-3.337,3.336-3.337,8.73,0,12.066l34.133,34.133    c1.664,1.664,3.849,2.5,6.033,2.5c2.185,0,4.369-0.836,6.033-2.5C333.636,245.897,333.636,240.503,330.3,237.167z"
   id="path403"
   style="fill:#985e6d" />
	</g>
</g>
<g
   id="g413"
   style="fill:#985e6d">
	<g
   id="g411"
   style="fill:#985e6d">
		<path
   d="M330.3,296.9c-3.337-3.337-8.73-3.337-12.066,0L284.1,331.034c-3.337,3.337-3.337,8.73,0,12.066    c1.664,1.664,3.849,2.5,6.033,2.5c2.185,0,4.369-0.836,6.033-2.5l34.133-34.133C333.636,305.63,333.636,300.237,330.3,296.9z"
   id="path409"
   style="fill:#985e6d" />
	</g>
</g>
<g
   id="g419"
   style="fill:#985e6d">
	<g
   id="g417"
   style="fill:#985e6d">
		<path
   d="M330.3,331.034L296.166,296.9c-3.337-3.337-8.73-3.336-12.066,0c-3.337,3.337-3.337,8.73,0,12.066l34.133,34.133    c1.664,1.664,3.849,2.5,6.033,2.5c2.185,0,4.369-0.836,6.033-2.5C333.636,339.763,333.636,334.37,330.3,331.034z"
   id="path415"
   style="fill:#985e6d" />
	</g>
</g>
<g
   id="g421">
</g>
<g
   id="g423">
</g>
<g
   id="g425">
</g>
<g
   id="g427">
</g>
<g
   id="g429">
</g>
<g
   id="g431">
</g>
<g
   id="g433">
</g>
<g
   id="g435">
</g>
<g
   id="g437">
</g>
<g
   id="g439">
</g>
<g
   id="g441">
</g>
<g
   id="g443">
</g>
<g
   id="g445">
</g>
<g
   id="g447">
</g>
<g
   id="g449">
</g>
</svg>