<?xml version="1.0" encoding="UTF-8" standalone="no"?>
<svg
   xmlns:dc="http://purl.org/dc/elements/1.1/"
   xmlns:cc="http://creativecommons.org/ns#"
   xmlns:rdf="http://www.w3.org/1999/02/22-rdf-syntax-ns#"
   xmlns:svg="http://www.w3.org/2000/svg"
   xmlns="http://www.w3.org/2000/svg"
   xmlns:sodipodi="http://sodipodi.sourceforge.net/DTD/sodipodi-0.dtd"
   xmlns:inkscape="http://www.inkscape.org/namespaces/inkscape"
   id="Capa_1"
   enable-background="new 0 0 512 512"
   height="512"
   viewBox="0 0 512 512"
   width="512"
   version="1.1"
   sodipodi:docname="phishing.svg"
   inkscape:version="0.92.4 (5da689c313, 2019-01-14)">
  <metadata
     id="metadata25">
    <rdf:RDF>
      <cc:Work
         rdf:about="">
        <dc:format>image/svg+xml</dc:format>
        <dc:type
           rdf:resource="http://purl.org/dc/dcmitype/StillImage" />
        <dc:title />
      </cc:Work>
    </rdf:RDF>
  </metadata>
  <defs
     id="defs23" />
  <sodipodi:namedview
     pagecolor="#ffffff"
     bordercolor="#666666"
     borderopacity="1"
     objecttolerance="10"
     gridtolerance="10"
     guidetolerance="10"
     inkscape:pageopacity="0"
     inkscape:pageshadow="2"
     inkscape:window-width="1920"
     inkscape:window-height="986"
     id="namedview21"
     showgrid="false"
     inkscape:zoom="1.3037281"
     inkscape:cx="-54.958224"
     inkscape:cy="228.18881"
     inkscape:window-x="0"
     inkscape:window-y="255"
     inkscape:window-maximized="1"
     inkscape:current-layer="g16" />
  <g
     id="g18">
    <g
       id="g16">
      <path
         d="m136.56 375.79c-4.142 0-7.5 3.357-7.5 7.5v121.21c0 4.143 3.358 7.5 7.5 7.5s7.5-3.357 7.5-7.5v-121.21c0-4.143-3.358-7.5-7.5-7.5z"
         id="path2"
         style="fill:#37327e;fill-opacity:1" />
      <path
         d="m407.83 375.79c-4.143 0-7.5 3.357-7.5 7.5v121.21c0 4.143 3.357 7.5 7.5 7.5s7.5-3.357 7.5-7.5v-121.21c0-4.143-3.357-7.5-7.5-7.5z"
         id="path4"
         style="fill:#37327e;fill-opacity:1" />
      <path
         d="m377.47 181.19h-37.041v-57.285c0-3.215-2.049-6.071-5.093-7.104-3.045-1.03-6.408-.009-8.362 2.544l-47.35 61.845h-60.662v-63.14c9.817-7.273 16.195-18.938 16.195-32.067 0-19.432-13.969-35.654-32.391-39.175v-39.308c0-4.143-3.358-7.5-7.5-7.5s-7.5 3.357-7.5 7.5v39.309c-18.421 3.52-32.391 19.743-32.391 39.174 0 13.129 6.378 24.793 16.195 32.067v63.14h-37.04c-20.876 0-37.86 16.983-37.86 37.859v285.451c0 4.143 3.358 7.5 7.5 7.5s7.5-3.357 7.5-7.5v-285.45c0-12.604 10.255-22.859 22.86-22.859l158.508-.003v12.744c0 20.423-16.615 37.038-37.038 37.038h-33.05c-1.135 0-2.164-.756-2.501-1.835l-5.681-18.194c-2.312-7.393-9.071-12.36-16.818-12.36h-51.27c-9.716 0-17.62 7.904-17.62 17.62v117.09c0 4.143 3.358 7.5 7.5 7.5s7.5-3.357 7.5-7.5v-117.091c0-1.444 1.175-2.62 2.62-2.62h51.27c1.134 0 2.163.756 2.5 1.835l5.681 18.194c2.312 7.393 9.071 12.36 16.818 12.36h25.55v24.891 14.171c0 4.143 3.358 7.5 7.5 7.5 4.143 0 7.5-3.357 7.5-7.5v-7.022c36.435-3.225 66.279-29.682 74.596-64.429h27.224c1.444 0 2.62 1.176 2.62 2.62v273.3c0 4.143 3.357 7.5 7.5 7.5s7.5-3.357 7.5-7.5v-273.3c0-9.716-7.904-17.62-17.62-17.62h-25.025c.084-1.54.134-3.088.134-4.648v-12.742h37.041c12.605 0 22.86 10.255 22.86 22.859v129.24c0 4.143 3.357 7.5 7.5 7.5s7.5-3.357 7.5-7.5v-129.239c.001-20.876-16.983-37.86-37.859-37.86zm-182.203-120.098c13.725 0 24.891 11.166 24.891 24.892 0 13.725-11.166 24.891-24.891 24.891s-24.891-11.166-24.891-24.891c0-13.726 11.166-24.892 24.891-24.892zm-8.696 63.816c2.801.625 5.708.966 8.695.966s5.895-.341 8.696-.966v56.282h-17.391zm76.929 153.05v-17.527c25.153-3.646 44.538-25.352 44.538-51.499v-20.244c0-4.143-3.357-7.5-7.5-7.5h-2.021l26.911-35.148v62.893c.001 35.749-27.157 65.275-61.928 69.025z"
         id="path6"
         style="fill:#37327e;fill-opacity:1" />
      <path
         d="m266.122 228.578c4.143 0 7.5-3.357 7.5-7.5s-3.357-7.5-7.5-7.5h-20.244c-4.142 0-7.5 3.357-7.5 7.5s3.358 7.5 7.5 7.5z"
         id="path8"
         style="fill:#37327e;fill-opacity:1" />
      <path
         d="m336.978 328.972h-161.956c-4.142 0-7.5 3.357-7.5 7.5v32.391c0 4.143 3.358 7.5 7.5 7.5h161.955c4.143 0 7.5-3.357 7.5-7.5v-32.391c.001-4.143-3.357-7.5-7.499-7.5zm-7.5 32.39h-146.956v-17.391h146.955v17.391z"
         id="path10"
         style="fill:#985e6d;fill-opacity:1" />
      <path
         d="m311.672 464.609h-111.344c-4.142 0-7.5 3.357-7.5 7.5v32.391c0 4.143 3.358 7.5 7.5 7.5h111.344c4.143 0 7.5-3.357 7.5-7.5v-32.391c0-4.142-3.358-7.5-7.5-7.5zm-7.5 32.391h-96.344v-17.391h96.344z"
         id="path12"
         style="fill:#985e6d;fill-opacity:1" />
      <path
         d="m336.978 393.754h-161.956c-4.142 0-7.5 3.357-7.5 7.5v32.391c0 4.143 3.358 7.5 7.5 7.5h161.955c4.143 0 7.5-3.357 7.5-7.5v-32.391c.001-4.143-3.357-7.5-7.499-7.5zm-7.5 32.391h-146.956v-17.391h146.955v17.391z"
         id="path14"
         style="fill:#985e6d;fill-opacity:1" />
    </g>
  </g>
</svg>
