<svg id="Capa_1" enable-background="new 0 0 511.792 511.792" height="512" viewBox="0 0 511.792 511.792" width="512" xmlns="http://www.w3.org/2000/svg"><g><path d="m416.726 511.792 69.945-211h-65.775v-54.378l-97.689-47.585c4.916-9.974 7.689-21.186 7.689-33.037v-48.288l48.638-12.159-7.275-29.104-28.233 7.058-34.612-83.299-53.519 17.601-53.518-17.601-34.611 83.298-28.233-7.058-7.275 29.104 48.638 12.159v48.288c0 11.851 2.774 23.062 7.689 33.037l-97.689 47.585v54.378h-65.775l69.945 211h321.66zm-197.312-474.608 36.481 11.998 36.481-11.998 22.219 53.471-58.7 14.675-58.7-14.675zm81.482 87.819v40.788c0 24.813-20.187 45-45 45s-45-20.187-45-45v-40.788l45 11.25zm-180 140.167 86.575-42.172c13.077 11.087 29.978 17.793 48.425 17.793s35.348-6.707 48.425-17.793l86.575 42.172v35.622h-270zm324.225 65.622-50.055 151h-278.34l-50.055-151z"/><path d="m240.896 390.792h30v30h-30z"/></g></svg>