<?xml version="1.0" encoding="UTF-8" standalone="no"?>
<!DOCTYPE svg PUBLIC "-//W3C//DTD SVG 1.1//EN"
 "http://www.w3.org/Graphics/SVG/1.1/DTD/svg11.dtd">
<!-- Generated by graphviz version 2.40.1 (20161225.0304)
 -->
<!-- Title: %3 Pages: 1 -->
<svg width="752pt" height="260pt"
 viewBox="0.00 0.00 751.50 260.00" xmlns="http://www.w3.org/2000/svg" xmlns:xlink="http://www.w3.org/1999/xlink">
<g id="graph0" class="graph" transform="scale(1 1) rotate(0) translate(4 256)">
<title>%3</title>
<polygon fill="#ffffff" stroke="transparent" points="-4,4 -4,-256 747.5,-256 747.5,4 -4,4"/>
<!-- android.telephony.TelephonyManager.getLine1Number() -->
<g id="node1" class="node">
<title>android.telephony.TelephonyManager.getLine1Number()</title>
<polygon fill="#985e6d" stroke="#985e6d" points="499.5,-108 210.5,-108 210.5,-72 499.5,-72 499.5,-108"/>
<text text-anchor="middle" x="355" y="-87.5" font-family="sans-serif" font-size="10.00" fill="#ffffff">android.telephony.TelephonyManager.getLine1Number()</text>
</g>
<!-- android.permission.READ_PHONE_NUMBERS -->
<g id="node2" class="node">
<title>android.permission.READ_PHONE_NUMBERS</title>
<polygon fill="#ff6347" stroke="#ff6347" points="254,-36 20,-36 20,0 254,0 254,-36"/>
<text text-anchor="middle" x="137" y="-15.5" font-family="sans-serif" font-size="10.00" fill="#ffffff">android.permission.READ_PHONE_NUMBERS</text>
</g>
<!-- android.telephony.TelephonyManager.getLine1Number()&#45;&gt;android.permission.READ_PHONE_NUMBERS -->
<g id="edge1" class="edge">
<title>android.telephony.TelephonyManager.getLine1Number()&#45;&gt;android.permission.READ_PHONE_NUMBERS</title>
<path fill="none" stroke="#ff6347" d="M232.25,-71.8314C232.25,-71.8314 232.25,-46.4133 232.25,-46.4133"/>
<polygon fill="#ff6347" stroke="#ff6347" points="235.7501,-46.4132 232.25,-36.4133 228.7501,-46.4133 235.7501,-46.4132"/>
</g>
<!-- android.permission.READ_SMS -->
<g id="node3" class="node">
<title>android.permission.READ_SMS</title>
<polygon fill="#ff6347" stroke="#ff6347" points="438,-36 272,-36 272,0 438,0 438,-36"/>
<text text-anchor="middle" x="355" y="-15.5" font-family="sans-serif" font-size="10.00" fill="#ffffff">android.permission.READ_SMS</text>
</g>
<!-- android.telephony.TelephonyManager.getLine1Number()&#45;&gt;android.permission.READ_SMS -->
<g id="edge2" class="edge">
<title>android.telephony.TelephonyManager.getLine1Number()&#45;&gt;android.permission.READ_SMS</title>
<path fill="none" stroke="#ff6347" d="M355,-71.8314C355,-71.8314 355,-46.4133 355,-46.4133"/>
<polygon fill="#ff6347" stroke="#ff6347" points="358.5001,-46.4132 355,-36.4133 351.5001,-46.4133 358.5001,-46.4132"/>
</g>
<!-- android.permission.READ_PHONE_STATE -->
<g id="node4" class="node">
<title>android.permission.READ_PHONE_STATE</title>
<polygon fill="#ff6347" stroke="#ff6347" points="671.5,-36 456.5,-36 456.5,0 671.5,0 671.5,-36"/>
<text text-anchor="middle" x="564" y="-15.5" font-family="sans-serif" font-size="10.00" fill="#ffffff">android.permission.READ_PHONE_STATE</text>
</g>
<!-- android.telephony.TelephonyManager.getLine1Number()&#45;&gt;android.permission.READ_PHONE_STATE -->
<g id="edge3" class="edge">
<title>android.telephony.TelephonyManager.getLine1Number()&#45;&gt;android.permission.READ_PHONE_STATE</title>
<path fill="none" stroke="#ff6347" d="M478,-71.8314C478,-71.8314 478,-46.4133 478,-46.4133"/>
<polygon fill="#ff6347" stroke="#ff6347" points="481.5001,-46.4132 478,-36.4133 474.5001,-46.4133 481.5001,-46.4132"/>
</g>
<!-- myapp.com.fulani.c.k.a() -->
<g id="node5" class="node">
<title>myapp.com.fulani.c.k.a()</title>
<polygon fill="#494e6b" stroke="#494e6b" points="156,-252 0,-252 0,-216 156,-216 156,-252"/>
<text text-anchor="middle" x="78" y="-231.5" font-family="sans-serif" font-size="10.00" fill="#ffffff">myapp.com.fulani.c.k.a()</text>
</g>
<!-- myapp.com.fulani.c -->
<g id="node6" class="node">
<title>myapp.com.fulani.c</title>
<polygon fill="#d3d3d3" stroke="#000000" points="420.5,-180 289.5,-180 289.5,-144 420.5,-144 420.5,-180"/>
<text text-anchor="middle" x="355" y="-159.5" font-family="sans-serif" font-size="10.00" fill="#212529">myapp.com.fulani.c</text>
</g>
<!-- myapp.com.fulani.c.k.a()&#45;&gt;myapp.com.fulani.c -->
<g id="edge4" class="edge">
<title>myapp.com.fulani.c.k.a()&#45;&gt;myapp.com.fulani.c</title>
<path fill="none" stroke="#000000" d="M88,-215.8314C88,-194.502 88,-162 88,-162 88,-162 279.3425,-162 279.3425,-162"/>
<polygon fill="#000000" stroke="#000000" points="279.3425,-165.5001 289.3425,-162 279.3425,-158.5001 279.3425,-165.5001"/>
</g>
<!-- myapp.com.fulani.c&#45;&gt;android.telephony.TelephonyManager.getLine1Number() -->
<g id="edge8" class="edge">
<title>myapp.com.fulani.c&#45;&gt;android.telephony.TelephonyManager.getLine1Number()</title>
<path fill="none" stroke="#000000" d="M355,-143.8314C355,-143.8314 355,-118.4133 355,-118.4133"/>
<polygon fill="#000000" stroke="#000000" points="358.5001,-118.4132 355,-108.4133 351.5001,-118.4133 358.5001,-118.4132"/>
</g>
<!-- myapp.com.fulani.c.l.a() -->
<g id="node7" class="node">
<title>myapp.com.fulani.c.l.a()</title>
<polygon fill="#494e6b" stroke="#494e6b" points="327.5,-252 174.5,-252 174.5,-216 327.5,-216 327.5,-252"/>
<text text-anchor="middle" x="251" y="-231.5" font-family="sans-serif" font-size="10.00" fill="#ffffff">myapp.com.fulani.c.l.a()</text>
</g>
<!-- myapp.com.fulani.c.l.a()&#45;&gt;myapp.com.fulani.c -->
<g id="edge5" class="edge">
<title>myapp.com.fulani.c.l.a()&#45;&gt;myapp.com.fulani.c</title>
<path fill="none" stroke="#000000" d="M308.5,-215.8314C308.5,-215.8314 308.5,-190.4133 308.5,-190.4133"/>
<polygon fill="#000000" stroke="#000000" points="312.0001,-190.4132 308.5,-180.4133 305.0001,-190.4133 312.0001,-190.4132"/>
</g>
<!-- myapp.com.fulani.c.i.doInBackground() -->
<g id="node8" class="node">
<title>myapp.com.fulani.c.i.doInBackground()</title>
<polygon fill="#494e6b" stroke="#494e6b" points="572,-252 346,-252 346,-216 572,-216 572,-252"/>
<text text-anchor="middle" x="459" y="-231.5" font-family="sans-serif" font-size="10.00" fill="#ffffff">myapp.com.fulani.c.i.doInBackground()</text>
</g>
<!-- myapp.com.fulani.c.i.doInBackground()&#45;&gt;myapp.com.fulani.c -->
<g id="edge6" class="edge">
<title>myapp.com.fulani.c.i.doInBackground()&#45;&gt;myapp.com.fulani.c</title>
<path fill="none" stroke="#000000" d="M383.25,-215.8314C383.25,-215.8314 383.25,-190.4133 383.25,-190.4133"/>
<polygon fill="#000000" stroke="#000000" points="386.7501,-190.4132 383.25,-180.4133 379.7501,-190.4133 386.7501,-190.4132"/>
</g>
<!-- myapp.com.fulani.c.j.a() -->
<g id="node9" class="node">
<title>myapp.com.fulani.c.j.a()</title>
<polygon fill="#494e6b" stroke="#494e6b" points="743.5,-252 590.5,-252 590.5,-216 743.5,-216 743.5,-252"/>
<text text-anchor="middle" x="667" y="-231.5" font-family="sans-serif" font-size="10.00" fill="#ffffff">myapp.com.fulani.c.j.a()</text>
</g>
<!-- myapp.com.fulani.c.j.a()&#45;&gt;myapp.com.fulani.c -->
<g id="edge7" class="edge">
<title>myapp.com.fulani.c.j.a()&#45;&gt;myapp.com.fulani.c</title>
<path fill="none" stroke="#000000" d="M631,-215.8314C631,-194.502 631,-162 631,-162 631,-162 430.7582,-162 430.7582,-162"/>
<polygon fill="#000000" stroke="#000000" points="430.7583,-158.5001 420.7582,-162 430.7582,-165.5001 430.7583,-158.5001"/>
</g>
</g>
</svg>
