<?xml version="1.0" encoding="UTF-8" standalone="no"?>
<!-- Created with Inkscape (http://www.inkscape.org/) -->

<svg
   xmlns:dc="http://purl.org/dc/elements/1.1/"
   xmlns:cc="http://creativecommons.org/ns#"
   xmlns:rdf="http://www.w3.org/1999/02/22-rdf-syntax-ns#"
   xmlns:svg="http://www.w3.org/2000/svg"
   xmlns="http://www.w3.org/2000/svg"
   xmlns:sodipodi="http://sodipodi.sourceforge.net/DTD/sodipodi-0.dtd"
   xmlns:inkscape="http://www.inkscape.org/namespaces/inkscape"
   width="61.272728mm"
   height="85.818184mm"
   viewBox="0 0 61.272728 85.818184"
   version="1.1"
   id="svg921"
   inkscape:version="0.92.4 (5da689c313, 2019-01-14)"
   sodipodi:docname="app_security.svg">
  <defs
     id="defs915" />
  <sodipodi:namedview
     id="base"
     pagecolor="#ffffff"
     bordercolor="#666666"
     borderopacity="1.0"
     inkscape:pageopacity="0.0"
     inkscape:pageshadow="2"
     inkscape:zoom="0.24748737"
     inkscape:cx="-504.90579"
     inkscape:cy="-358.62766"
     inkscape:document-units="mm"
     inkscape:current-layer="layer1"
     showgrid="false"
     inkscape:window-width="1920"
     inkscape:window-height="1173"
     inkscape:window-x="3840"
     inkscape:window-y="0"
     inkscape:window-maximized="1" />
  <metadata
     id="metadata918">
    <rdf:RDF>
      <cc:Work
         rdf:about="">
        <dc:format>image/svg+xml</dc:format>
        <dc:type
           rdf:resource="http://purl.org/dc/dcmitype/StillImage" />
        <dc:title></dc:title>
      </cc:Work>
    </rdf:RDF>
  </metadata>
  <g
     inkscape:label="Calque 1"
     inkscape:groupmode="layer"
     id="layer1"
     transform="translate(-18.541232,-13.548333)">
    <g
       id="g5158"
       transform="translate(-122.75102,6.7960666)">
      <g
         id="g5115">
        <rect
           style="fill:none;fill-opacity:0.4857143;stroke:#494e6b;stroke-width:4;stroke-linecap:round;stroke-linejoin:round;stroke-miterlimit:4;stroke-dasharray:none;stroke-opacity:1"
           x="143.29225"
           y="8.7522659"
           width="57.272728"
           height="81.818184"
           rx="8.181818"
           ry="8.181818"
           id="rect3715" />
        <line
           style="fill:#e6e6e6;fill-opacity:1;stroke:#494e6b;stroke-width:4;stroke-linecap:round;stroke-linejoin:round;stroke-miterlimit:4;stroke-dasharray:none;stroke-opacity:1"
           x1="171.9286"
           y1="79.498482"
           x2="171.9286"
           y2="79.498482"
           id="line3717" />
      </g>
      <path
         id="path3813"
         d="m 193.67874,22.632979 a 7.232075,7.232075 0 0 1 -0.77672,3.279461 7.3356369,7.3356369 0 0 1 -6.55892,4.056176 7.232075,7.232075 0 0 1 -3.27946,-0.776714 l -4.9192,1.63973 1.63975,-4.919192 a 7.232075,7.232075 0 0 1 -0.77673,-3.279461 7.3356369,7.3356369 0 0 1 4.05618,-6.558923 7.232075,7.232075 0 0 1 3.27946,-0.776714 h 0.43151 a 7.3183766,7.3183766 0 0 1 6.90413,6.904128 z"
         inkscape:connector-curvature="0"
         style="fill:#975d6d;fill-opacity:0.37647059;stroke:#494e6b;stroke-width:2.46575665;stroke-linecap:round;stroke-linejoin:round;stroke-miterlimit:4;stroke-dasharray:none;stroke-opacity:1" />
      <g
         transform="matrix(1.1503646,0,0,1.1503646,39.406749,-11.153026)"
         id="g4863">
        <g
           id="g4857"
           style="fill:#975d6d;fill-opacity:0.37647059">
          <polygon
             transform="matrix(0.68093652,0,0,0.68093652,94.938349,59.769397)"
             style="fill:#975d6d;fill-opacity:0.37647059;stroke:#494e6b;stroke-width:2.9371314;stroke-linecap:round;stroke-linejoin:round;stroke-miterlimit:4;stroke-dasharray:none;stroke-opacity:1"
             points="1,6 1,22 8,18 16,22 23,18 23,2 16,6 8,2 "
             id="polygon4691" />
        </g>
        <line
           id="line4693"
           y2="72.026253"
           x2="100.38584"
           y1="61.131271"
           x1="100.38584"
           style="fill:#e6e6e6;stroke:#494e6b;stroke-width:2;stroke-linecap:round;stroke-linejoin:round;stroke-miterlimit:4;stroke-dasharray:none;stroke-opacity:1" />
        <line
           id="line4695"
           y2="74.75"
           x2="105.83334"
           y1="63.855015"
           x1="105.83334"
           style="fill:#e6e6e6;stroke:#494e6b;stroke-width:2;stroke-linecap:round;stroke-linejoin:round;stroke-miterlimit:4;stroke-dasharray:none;stroke-opacity:1" />
      </g>
      <g
         transform="matrix(2.0454563,0,0,2.0454563,147.38314,25.115888)"
         id="g3742"
         style="fill:#985e6d;fill-opacity:0.37647059;stroke:#985e6d;stroke-width:2;stroke-linecap:round;stroke-linejoin:round">
        <path
           style="fill:#985e6d;fill-opacity:0.37647059"
           inkscape:connector-curvature="0"
           d="m 12,22 c 0,0 8,-4 8,-10 V 5 L 12,2 4,5 v 7 c 0,6 8,10 8,10 z"
           id="path3731" />
      </g>
    </g>
  </g>
</svg>
