<?xml version="1.0" encoding="UTF-8" standalone="no"?>
<!-- Created with Inkscape (http://www.inkscape.org/) -->

<svg
   xmlns:dc="http://purl.org/dc/elements/1.1/"
   xmlns:cc="http://creativecommons.org/ns#"
   xmlns:rdf="http://www.w3.org/1999/02/22-rdf-syntax-ns#"
   xmlns:svg="http://www.w3.org/2000/svg"
   xmlns="http://www.w3.org/2000/svg"
   xmlns:sodipodi="http://sodipodi.sourceforge.net/DTD/sodipodi-0.dtd"
   xmlns:inkscape="http://www.inkscape.org/namespaces/inkscape"
   width="84.088684mm"
   height="72.868347mm"
   viewBox="0 0 84.088684 72.868347"
   version="1.1"
   id="svg1539"
   inkscape:version="0.92.4 (5da689c313, 2019-01-14)"
   sodipodi:docname="investigation.svg">
  <defs
     id="defs1533" />
  <sodipodi:namedview
     id="base"
     pagecolor="#ffffff"
     bordercolor="#666666"
     borderopacity="1.0"
     inkscape:pageopacity="0.0"
     inkscape:pageshadow="2"
     inkscape:zoom="0.35"
     inkscape:cx="-201.09225"
     inkscape:cy="-156.58176"
     inkscape:document-units="mm"
     inkscape:current-layer="layer1"
     showgrid="false"
     inkscape:window-width="1920"
     inkscape:window-height="1053"
     inkscape:window-x="0"
     inkscape:window-y="0"
     inkscape:window-maximized="1" />
  <metadata
     id="metadata1536">
    <rdf:RDF>
      <cc:Work
         rdf:about="">
        <dc:format>image/svg+xml</dc:format>
        <dc:type
           rdf:resource="http://purl.org/dc/dcmitype/StillImage" />
        <dc:title></dc:title>
      </cc:Work>
    </rdf:RDF>
  </metadata>
  <g
     inkscape:label="Calque 1"
     inkscape:groupmode="layer"
     id="layer1"
     transform="translate(-21.455657,-34.536059)">
    <g
       id="g4907"
       transform="translate(-31.254719,-146.78996)">
      <g
         transform="matrix(3.6394332,0,0,3.6394332,51.092106,168.70297)"
         id="g4792"
         style="fill:none;stroke:#494e6b;stroke-width:1.09907222;stroke-linecap:round;stroke-linejoin:round;stroke-miterlimit:4;stroke-dasharray:none;stroke-opacity:1">
        <path
           style="stroke:#494e6b;stroke-width:1.09907222;stroke-miterlimit:4;stroke-dasharray:none;stroke-opacity:1"
           inkscape:connector-curvature="0"
           d="M 18,10 H 16.74 A 8,8 0 1 0 9,20 h 9 a 5,5 0 0 0 0,-10 z"
           id="path4781" />
      </g>
      <g
         style="stroke:#494e6b;stroke-opacity:1"
         transform="matrix(0.01304575,0,0,0.01304575,-145.98106,410.0663)"
         id="g4844">
        <title
           id="title4840">Layer 1</title>
        <g
           style="stroke:#494e6b;stroke-opacity:1"
           id="layer1-3"
           transform="rotate(113.362,860.479,1007.13)">
          <path
             style="fill:#494e6b;fill-opacity:1;stroke:none;stroke-opacity:1"
             inkscape:connector-curvature="0"
             d="m -19890.508,-8596.9596 c 133.318,57.5721 242.662,117.2745 407.322,195.009 561.189,-693.0424 -259.716,-980.9286 -407.322,-195.009 z m -82.167,144.3244 c -86.519,88.2241 -163.78,179.0498 -281.423,229.482 -128.504,51.8533 -211.07,125.8189 -313.398,280.7548 -186.12,281.8036 -239.124,517.048 -149.659,664.2245 220.267,282.7634 502.828,47.4924 692.421,-140.7471 116.828,-95.2178 468.441,-642.8612 436.993,-821.6066 -130.367,-70.3406 -258.345,-139.4201 -384.934,-212.1076 z"
             id="path2890-7" />
        </g>
      </g>
      <g
         transform="matrix(2.5503064,0,0,2.5503064,59.784274,198.06065)"
         id="g4808"
         style="fill:#975d6d;fill-opacity:0.37647059;stroke:#985e6d;stroke-width:2.00094676;stroke-linecap:round;stroke-linejoin:round;stroke-miterlimit:4;stroke-dasharray:none">
        <circle
           style="fill:#975d6d;fill-opacity:0.37647059;stroke-width:2.00094676;stroke-miterlimit:4;stroke-dasharray:none"
           cx="11"
           cy="11"
           r="8"
           id="circle4794" />
        <line
           style="fill:#975d6d;fill-opacity:0.37647059;stroke-width:2.00094676;stroke-miterlimit:4;stroke-dasharray:none"
           x1="21"
           y1="21"
           x2="16.65"
           y2="16.65"
           id="line4796" />
      </g>
    </g>
  </g>
</svg>
